<svg width="28" height="28" viewBox="0 0 28 28" fill="none" xmlns="http://www.w3.org/2000/svg">
<g clip-path="url(#clip0_21_136)">
<path d="M18.4844 14.5469C16.6751 14.5469 15.2031 16.0188 15.2031 17.8281C15.2031 19.6374 16.6751 21.1094 18.4844 21.1094C20.2937 21.1094 21.7656 19.6374 21.7656 17.8281C21.7656 16.0188 20.2937 14.5469 18.4844 14.5469ZM18.4844 18.9219C17.8813 18.9219 17.3906 18.4312 17.3906 17.8281C17.3906 17.225 17.8813 16.7344 18.4844 16.7344C19.0875 16.7344 19.5781 17.225 19.5781 17.8281C19.5781 18.4312 19.0875 18.9219 18.4844 18.9219Z" fill="#A8A8A8"/>
<path d="M12.7422 10.1719C12.7422 8.36259 11.2702 6.89062 9.46094 6.89062C7.65166 6.89062 6.17969 8.36259 6.17969 10.1719C6.17969 11.9812 7.65166 13.4531 9.46094 13.4531C11.2702 13.4531 12.7422 11.9812 12.7422 10.1719ZM8.36719 10.1719C8.36719 9.56878 8.85784 9.07812 9.46094 9.07812C10.064 9.07812 10.5547 9.56878 10.5547 10.1719C10.5547 10.775 10.064 11.2656 9.46094 11.2656C8.85784 11.2656 8.36719 10.775 8.36719 10.1719Z" fill="#A8A8A8"/>
<path d="M23.8995 4.10047C21.2552 1.45627 17.7395 0 14 0C10.2605 0 6.74477 1.45627 4.10047 4.10047C1.45627 6.74477 0 10.2605 0 14C0 17.7395 1.45627 21.2552 4.10047 23.8995C6.74477 26.5437 10.2605 28 14 28C17.7395 28 21.2552 26.5437 23.8995 23.8995C26.5437 21.2552 28 17.7395 28 14C28 10.2605 26.5437 6.74477 23.8995 4.10047ZM14 25.8125C7.48656 25.8125 2.1875 20.5134 2.1875 14C2.1875 7.48656 7.48656 2.1875 14 2.1875C20.5134 2.1875 25.8125 7.48656 25.8125 14C25.8125 20.5134 20.5134 25.8125 14 25.8125Z" fill="#A8A8A8"/>
<path d="M16.304 7.4375L9.20941 20.5625H11.696L18.7906 7.4375H16.304Z" fill="#A8A8A8"/>
</g>
<defs>
<clipPath id="clip0_21_136">
<rect width="28" height="28" fill="white"/>
</clipPath>
</defs>
</svg>
