<svg width="28" height="28" viewBox="0 0 28 28" fill="none" xmlns="http://www.w3.org/2000/svg">
<g clip-path="url(#clip0_20_76)">
<path d="M24.5653 20.4983C24.8605 21.8546 24.4693 23.3297 23.4633 24.3356C22.8098 24.9891 21.9743 25.3937 21.0713 25.5046C20.5136 26.7307 19.5031 27.5859 18.2295 27.8871C16.5941 28.2737 14.9663 27.6395 14 26.3549C13.0329 27.6407 11.4047 28.2733 9.77058 27.8871C8.48591 27.5833 7.43802 26.7096 6.87634 25.5025C5.96728 25.3886 5.13138 24.985 4.48205 24.3356C3.47576 23.3293 3.08458 21.8536 3.38035 20.4969C1.47938 20.1617 0 18.5013 0 16.4598C0 15.4974 0.329504 14.5857 0.934817 13.8532C0.330434 12.9257 0.00360891 11.8368 0.00360891 10.7183C0.00360891 7.8305 2.14692 5.43413 4.92627 5.03551C4.92605 5.01593 4.92485 4.99652 4.92485 4.97689C4.92485 2.1942 7.113 0.00097084 9.90077 0.00097084C11.6119 0.00097084 13.1279 0.871756 14.0018 2.20929C14.8764 0.870663 16.3929 0.00097084 18.1028 0.00097084C20.8282 0.00097084 23.0241 2.19677 23.0241 4.97689C23.0241 4.99619 23.0229 5.01522 23.0227 5.03447C25.8322 5.42975 28 7.82782 28 10.7183C28 11.8379 27.6726 12.9276 27.0673 13.8555C27.6713 14.5876 28 15.4984 28 16.4598C28 18.441 26.6 20.1498 24.5653 20.4983ZM9.90077 1.64138C8.03721 1.64138 6.56526 3.08686 6.56526 4.97689C6.56526 5.8532 6.90652 6.67712 7.52622 7.29682L6.36623 8.45675C5.8472 7.93767 5.45869 7.32301 5.21652 6.65252C3.20411 6.9128 1.64402 8.63622 1.64402 10.7183C1.64402 11.4606 1.84563 12.1843 2.22019 12.8143C2.79472 12.5171 3.43557 12.3588 4.10103 12.3588V13.9992C2.74113 13.9992 1.64041 15.0997 1.64041 16.4598C1.64041 17.8197 2.74091 18.9204 4.10103 18.9204C4.75829 18.9204 5.37618 18.6644 5.84091 18.1997L7.0009 19.3597C6.47001 19.8905 5.81909 20.2578 5.1094 20.4365C4.72756 21.3574 4.92862 22.4623 5.64193 23.1756C6.59999 24.1337 8.21087 24.1413 9.17642 23.1756L10.3364 24.3356C9.86906 24.8029 9.30486 25.1425 8.68665 25.3392C9.05301 25.8139 9.5606 26.1517 10.148 26.2906C11.7109 26.6601 13.178 25.4713 13.178 23.8963H13.1816V20.5586C12.4957 21.0747 11.6435 21.381 10.721 21.381V19.7406C12.0778 19.7406 13.1816 18.6368 13.1816 17.28V14.8194H8.20568V13.179H13.1816V10.7183C13.1816 9.36155 12.0778 8.25772 10.721 8.25772V6.6173C11.6435 6.6173 12.4957 6.92368 13.1816 7.43975V4.97689C13.1816 3.14302 11.7566 1.64138 9.90077 1.64138ZM22.7327 6.6517C22.4906 7.32252 22.1019 7.93751 21.5827 8.45675L20.4227 7.29682C21.0424 6.67712 21.3837 5.85325 21.3837 4.97689C21.3837 3.14302 19.9587 1.64138 18.1028 1.64138C16.2417 1.64138 14.822 3.14849 14.822 4.97689V7.43975C15.5079 6.92368 16.3601 6.6173 17.2826 6.6173V8.25772C15.9258 8.25772 14.822 9.36155 14.822 10.7183V13.179H19.7433V14.8194H14.822V17.28C14.822 18.6368 15.9258 19.7406 17.2826 19.7406V21.381C16.3601 21.381 15.5079 21.0747 14.822 20.5586V23.8963C14.822 25.4738 16.292 26.6597 17.852 26.2906C18.4315 26.1536 18.9232 25.817 19.2795 25.3314C18.6771 25.1336 18.1249 24.7969 17.6636 24.3355L18.8236 23.1756C19.7851 24.1371 21.3417 24.1374 22.3034 23.1756C23.0167 22.4623 23.2178 21.3574 22.8359 20.4364C22.1262 20.2578 21.4754 19.8905 20.9445 19.3596L22.1044 18.1997C22.5692 18.6644 23.1871 18.9204 23.8443 18.9204C25.2625 18.9204 26.3596 17.8265 26.3596 16.4597C26.3596 15.0913 25.2609 13.9991 23.8443 13.9991V12.3587C24.524 12.3587 25.1892 12.5224 25.7783 12.8225C26.1561 12.1906 26.3596 11.4638 26.3596 10.7183C26.3596 8.63397 24.7752 6.90902 22.7327 6.6517Z" fill="#2871A3"/>
</g>
<defs>
<clipPath id="clip0_20_76">
<rect width="28" height="28" fill="white" transform="matrix(1 0 0 -1 0 28)"/>
</clipPath>
</defs>
</svg>
