<svg width="28" height="28" viewBox="0 0 28 28" fill="none" xmlns="http://www.w3.org/2000/svg">
<g clip-path="url(#clip0_20_9)">
<path d="M28.8472 11.9861C28.7501 11.7794 28.5428 11.6472 28.3135 11.6472H26.5697C25.4611 5.63085 20.1781 1.05742 13.8461 1.05742C6.70983 1.05742 0.903229 6.86402 0.903229 14.0003C0.903229 21.1366 6.70923 26.9426 13.8461 26.9426C18.4517 26.9426 22.7469 24.4637 25.0554 20.4747C25.3807 19.9117 25.1888 19.1927 24.6253 18.8668C24.0629 18.541 23.3433 18.7328 23.0186 19.2958C21.1289 22.561 17.6141 24.59 13.8461 24.59C8.00733 24.59 3.25637 19.8397 3.25637 14.0015C3.25637 8.16212 8.00733 3.41175 13.8461 3.41175C18.8753 3.41175 23.0889 6.93908 24.1624 11.6477H22.4324C22.203 11.6477 21.9963 11.78 21.8986 11.9867C21.8015 12.1934 21.8331 12.4371 21.9796 12.6128L24.9214 16.1425C25.0334 16.2766 25.1984 16.354 25.3735 16.354C25.5481 16.354 25.7137 16.276 25.8251 16.1425L28.7668 12.6128C28.9134 12.4365 28.9443 12.1928 28.8472 11.9861Z" fill="#2871A3"/>
<path d="M13.8461 3.99915C13.1961 3.99915 12.6695 4.52577 12.6695 5.17572V12.315C12.1375 12.6879 11.7872 13.3027 11.7872 14.0009C11.7872 15.1364 12.7112 16.0603 13.8467 16.0603C14.1576 16.0603 14.4507 15.9859 14.7153 15.8614L18.8079 18.2234C18.9938 18.3313 19.1952 18.3819 19.3953 18.3819C19.8016 18.3819 20.1972 18.171 20.4152 17.7933C20.7399 17.2315 20.5475 16.5113 19.9839 16.1866L15.8871 13.821C15.8323 13.199 15.5088 12.6557 15.0238 12.3162V5.17572C15.0227 4.52637 14.4954 3.99915 13.8461 3.99915ZM13.8461 14.8826C13.3594 14.8826 12.9638 14.4864 12.9638 14.0009C12.9638 13.5148 13.36 13.1186 13.8461 13.1186C14.3322 13.1186 14.7284 13.5148 14.7284 14.0009C14.7284 14.4864 14.3322 14.8826 13.8461 14.8826Z" fill="#2871A3"/>
</g>
<defs>
<clipPath id="clip0_20_9">
<rect width="28" height="28" fill="white"/>
</clipPath>
</defs>
</svg>
