<svg width="28" height="28" viewBox="0 0 28 28" fill="none" xmlns="http://www.w3.org/2000/svg">
<g clip-path="url(#clip0_20_35)">
<path d="M27.125 7.13956C27.125 3.96856 24.1758 0.874995 24.1758 0.874995C24.1758 0.874995 23.0374 2.06981 22.1756 3.7345C19.8546 1.87982 16.971 0.871242 14 0.874995C6.74975 0.874995 0.875 6.74975 0.875 14C0.875 21.2502 6.74975 27.125 14 27.125C21.2502 27.125 27.125 21.2502 27.125 14C27.125 12.4031 26.8393 10.8736 26.3174 9.45787C26.8056 8.918 27.1254 8.14756 27.125 7.13956ZM14 26.0312C7.36575 26.0312 1.96875 20.6342 1.96875 14C1.96875 7.36575 7.36575 1.96875 14 1.96875C16.9304 1.96875 19.6188 3.02312 21.7079 4.7705C21.42 5.52212 21.2249 6.328 21.2249 7.13956C21.2249 9.92293 23.6491 10.9196 25.3903 10.1334C25.8147 11.3783 26.0312 12.6847 26.0312 14C26.0312 20.6342 20.6338 26.0312 14 26.0312Z" fill="#2871A3" stroke="#2871A3"/>
<path d="M19.03 17.9375C20.2381 17.9375 21.2175 16.9581 21.2175 15.75C21.2175 14.5419 20.2381 13.5625 19.03 13.5625C17.8218 13.5625 16.8425 14.5419 16.8425 15.75C16.8425 16.9581 17.8218 17.9375 19.03 17.9375Z" fill="#2871A3"/>
<path d="M8.96747 17.9375C10.1756 17.9375 11.155 16.9581 11.155 15.75C11.155 14.5419 10.1756 13.5625 8.96747 13.5625C7.75935 13.5625 6.77997 14.5419 6.77997 15.75C6.77997 16.9581 7.75935 17.9375 8.96747 17.9375Z" fill="#2871A3"/>
<path d="M11.8086 10.3163C12.0453 10.1111 11.3838 9.41456 11.1899 9.58388C10.4904 10.1744 9.66932 10.6033 8.78509 10.8402C7.90087 11.0772 6.97528 11.1162 6.07425 10.9546C5.82138 10.9051 5.59825 11.8388 5.90581 11.8978C6.94547 12.0845 8.01349 12.0395 9.03378 11.7661C10.0541 11.4927 11.0015 10.9977 11.8086 10.3163Z" fill="#2871A3"/>
<path d="M21.924 10.8881C20.1005 11.2153 18.225 10.7131 16.8092 9.51737C16.6154 9.34719 15.9539 10.0446 16.1915 10.2497C16.9985 10.9312 17.946 11.4262 18.9663 11.6996C19.9865 11.9729 21.0546 12.0179 22.0942 11.8313C22.4018 11.7722 22.1778 10.8382 21.924 10.8881Z" fill="#2871A3"/>
<path d="M17.5 21H10.5C9.84203 21 9.84203 22.75 10.5 22.75H17.5C18.158 22.75 18.158 21 17.5 21Z" fill="#2871A3"/>
</g>
<defs>
<clipPath id="clip0_20_35">
<rect width="28" height="28" fill="white"/>
</clipPath>
</defs>
</svg>
