<svg width="41" height="41" viewBox="0 0 41 41" fill="none" xmlns="http://www.w3.org/2000/svg">
<g clip-path="url(#clip0_34_18)">
<path d="M30.75 0.341797H0.683333C0.305962 0.341797 0 0.647759 0 1.02513V39.9751C0 40.3525 0.305962 40.6585 0.683333 40.6585H30.75C31.1274 40.6585 31.4333 40.3525 31.4333 39.9751V1.02513C31.4333 0.647759 31.1274 0.341797 30.75 0.341797ZM30.0667 39.2918H1.36667V1.70846H30.0667V39.2918Z" fill="#1FD8EE"/>
<path d="M19.1334 7.17505H12.3C11.9227 7.17505 11.6167 7.48101 11.6167 7.85838C11.6167 8.23575 11.9227 8.54172 12.3 8.54172H19.1334C19.5107 8.54172 19.8167 8.23575 19.8167 7.85838C19.8167 7.48101 19.5107 7.17505 19.1334 7.17505Z" fill="#1FD8EE"/>
<path d="M10.25 15.375H6.15001C5.77264 15.375 5.46667 15.681 5.46667 16.0583C5.46667 16.4357 5.77264 16.7417 6.15001 16.7417H10.25C10.6274 16.7417 10.9333 16.4357 10.9333 16.0583C10.9333 15.681 10.6274 15.375 10.25 15.375Z" fill="#1FD8EE"/>
<path d="M28.0167 15.375H12.9834C12.606 15.375 12.3 15.681 12.3 16.0583C12.3 16.4357 12.606 16.7417 12.9834 16.7417H28.0167C28.3941 16.7417 28.7 16.4357 28.7 16.0583C28.7 15.681 28.3941 15.375 28.0167 15.375Z" fill="#1FD8EE"/>
<path d="M28.0167 18.1082H3.41673C3.03936 18.1082 2.7334 18.4141 2.7334 18.7915C2.7334 19.1689 3.03936 19.4748 3.41673 19.4748H28.0167C28.3941 19.4748 28.7001 19.1689 28.7001 18.7915C28.7001 18.4141 28.3941 18.1082 28.0167 18.1082Z" fill="#1FD8EE"/>
<path d="M21.1834 20.8418H3.41673C3.03936 20.8418 2.7334 21.1478 2.7334 21.5251C2.7334 21.9025 3.03936 22.2085 3.41673 22.2085H21.1834C21.5608 22.2085 21.8667 21.9025 21.8667 21.5251C21.8667 21.1478 21.5608 20.8418 21.1834 20.8418Z" fill="#1FD8EE"/>
<path d="M28.0167 20.8418H23.9167C23.5394 20.8418 23.2334 21.1478 23.2334 21.5251C23.2334 21.9025 23.5394 22.2085 23.9167 22.2085H28.0167C28.3941 22.2085 28.7001 21.9025 28.7001 21.5251C28.7001 21.1478 28.3941 20.8418 28.0167 20.8418Z" fill="#1FD8EE"/>
<path d="M28.0167 23.575H15.7167C15.3393 23.575 15.0333 23.8809 15.0333 24.2583C15.0333 24.6357 15.3393 24.9416 15.7167 24.9416H28.0167C28.394 24.9416 28.7 24.6357 28.7 24.2583C28.7 23.8809 28.394 23.575 28.0167 23.575Z" fill="#1FD8EE"/>
<path d="M12.9834 23.575H3.41673C3.03936 23.575 2.7334 23.8809 2.7334 24.2583C2.7334 24.6357 3.03936 24.9416 3.41673 24.9416H12.9834C13.3608 24.9416 13.6667 24.6357 13.6667 24.2583C13.6667 23.8809 13.3608 23.575 12.9834 23.575Z" fill="#1FD8EE"/>
<path d="M28.0166 26.3083H25.2833C24.9059 26.3083 24.6 26.6143 24.6 26.9917C24.6 27.3691 24.9059 27.675 25.2833 27.675H28.0166C28.394 27.675 28.7 27.3691 28.7 26.9917C28.7 26.6143 28.394 26.3083 28.0166 26.3083Z" fill="#1FD8EE"/>
<path d="M6.8334 26.3083H3.41673C3.03936 26.3083 2.7334 26.6143 2.7334 26.9917C2.7334 27.3691 3.03936 27.675 3.41673 27.675H6.8334C7.21077 27.675 7.51673 27.3691 7.51673 26.9917C7.51673 26.6143 7.21077 26.3083 6.8334 26.3083Z" fill="#1FD8EE"/>
<path d="M22.55 26.3083H9.56663C9.18926 26.3083 8.8833 26.6143 8.8833 26.9917C8.8833 27.3691 9.18926 27.675 9.56663 27.675H22.55C22.9273 27.675 23.2333 27.3691 23.2333 26.9917C23.2333 26.6143 22.9273 26.3083 22.55 26.3083Z" fill="#1FD8EE"/>
<path d="M27.3334 34.5083H17.7667C17.3893 34.5083 17.0834 34.8143 17.0834 35.1916C17.0834 35.569 17.3893 35.875 17.7667 35.875H27.3334C27.7107 35.875 28.0167 35.569 28.0167 35.1916C28.0167 34.8143 27.7107 34.5083 27.3334 34.5083Z" fill="#1FD8EE"/>
<path d="M21.8666 4.44165H9.56663C9.18926 4.44165 8.8833 4.74761 8.8833 5.12498C8.8833 5.50235 9.18926 5.80832 9.56663 5.80832H21.8666C22.244 5.80832 22.55 5.50235 22.55 5.12498C22.55 4.74761 22.244 4.44165 21.8666 4.44165Z" fill="#1FD8EE"/>
<path d="M40.3166 6.49163H38.2666C38.2666 4.98207 37.0429 3.7583 35.5333 3.7583C34.0237 3.7583 32.8 4.98207 32.8 6.49163V31.0916C32.7944 33.0243 33.5626 34.8788 34.9333 36.2412L35.0502 36.3581C35.317 36.6248 35.7496 36.6248 36.0164 36.3581L36.1333 36.2412C37.5039 34.8788 38.2722 33.0243 38.2666 31.0916V7.8583H39.6333V14.0083H41V7.17497C41 6.7976 40.694 6.49163 40.3166 6.49163ZM35.5333 34.8746C34.7966 33.9937 34.3349 32.916 34.2056 31.775H36.861C36.7317 32.916 36.27 33.9937 35.5333 34.8746ZM36.9 30.4083H34.1666V7.8583H36.9V30.4083ZM34.1666 6.49163C34.1666 5.73681 34.7785 5.12497 35.5333 5.12497C36.2881 5.12497 36.9 5.73681 36.9 6.49163H34.1666Z" fill="#1FD8EE"/>
<path d="M28.0166 11.2751H19.8166C19.4393 11.2751 19.1333 11.5811 19.1333 11.9585C19.1333 12.3359 19.4393 12.6418 19.8166 12.6418H28.0166C28.394 12.6418 28.7 12.3359 28.7 11.9585C28.7 11.5811 28.394 11.2751 28.0166 11.2751Z" fill="#1FD8EE"/>
<path d="M18.4501 29.0417H3.41673C3.03936 29.0417 2.7334 29.3477 2.7334 29.7251C2.7334 30.1025 3.03936 30.4084 3.41673 30.4084H18.4501C18.8274 30.4084 19.1334 30.1025 19.1334 29.7251C19.1334 29.3477 18.8274 29.0417 18.4501 29.0417Z" fill="#1FD8EE"/>
</g>
<defs>
<clipPath id="clip0_34_18">
<rect width="41" height="41" fill="white"/>
</clipPath>
</defs>
</svg>
