<svg width="44" height="44" viewBox="0 0 44 44" fill="none" xmlns="http://www.w3.org/2000/svg">
<path d="M41.9375 1.375H2.0625C1.88016 1.375 1.7053 1.44744 1.57637 1.57637C1.44744 1.7053 1.375 1.88016 1.375 2.0625V5.5C1.375 5.68234 1.44744 5.8572 1.57637 5.98613C1.7053 6.11506 1.88016 6.1875 2.0625 6.1875H4.125V35.75H2.0625V37.125H21.3125V38.6183C20.8538 38.7804 20.4672 39.0996 20.221 39.5192C19.9748 39.9389 19.8849 40.4321 19.9672 40.9116C20.0495 41.3911 20.2986 41.8261 20.6706 42.1397C21.0426 42.4533 21.5135 42.6253 22 42.6253C22.4865 42.6253 22.9574 42.4533 23.3294 42.1397C23.7014 41.8261 23.9505 41.3911 24.0328 40.9116C24.1151 40.4321 24.0252 39.9389 23.779 39.5192C23.5328 39.0996 23.1462 38.7804 22.6875 38.6183V37.125H41.9375V35.75H39.875V6.1875H41.9375C42.1198 6.1875 42.2947 6.11506 42.4236 5.98613C42.5526 5.8572 42.625 5.68234 42.625 5.5V2.0625C42.625 1.88016 42.5526 1.7053 42.4236 1.57637C42.2947 1.44744 42.1198 1.375 41.9375 1.375ZM22 41.25C21.864 41.25 21.7311 41.2097 21.618 41.1341C21.505 41.0586 21.4169 40.9512 21.3648 40.8256C21.3128 40.7 21.2992 40.5617 21.3257 40.4284C21.3522 40.295 21.4177 40.1725 21.5139 40.0764C21.61 39.9802 21.7325 39.9147 21.8659 39.8882C21.9992 39.8617 22.1375 39.8753 22.2631 39.9273C22.3887 39.9794 22.4961 40.0675 22.5716 40.1805C22.6472 40.2936 22.6875 40.4265 22.6875 40.5625C22.6873 40.7448 22.6148 40.9195 22.4859 41.0484C22.357 41.1773 22.1823 41.2498 22 41.25ZM38.5 35.75H5.5V6.1875H38.5V35.75ZM41.25 4.8125H2.75V2.75H41.25V4.8125Z" fill="#1FD8EE"/>
<path d="M23.375 15.125C24.4686 15.1262 25.5171 15.5612 26.2905 16.3345C27.0638 17.1079 27.4988 18.1564 27.5 19.25C27.5 19.4323 27.5724 19.6072 27.7014 19.7361C27.8303 19.8651 28.0052 19.9375 28.1875 19.9375H33C33.1823 19.9375 33.3572 19.8651 33.4861 19.7361C33.6151 19.6072 33.6875 19.4323 33.6875 19.25C33.6898 17.0884 33.0091 14.9814 31.7426 13.2297L32.5973 12.375H36.4375V11H32.3125C32.1302 11 31.9553 11.0724 31.8264 11.2013L30.862 12.1657C29.9 11.1457 28.7396 10.3332 27.452 9.77801C26.1645 9.22286 24.7771 8.93683 23.375 8.9375C23.1927 8.9375 23.0178 9.00994 22.8889 9.13887C22.7599 9.2678 22.6875 9.44267 22.6875 9.625V14.4375C22.6875 14.6198 22.7599 14.7947 22.8889 14.9236C23.0178 15.0526 23.1927 15.125 23.375 15.125ZM24.0625 10.3387C26.188 10.5056 28.1842 11.4256 29.6918 12.9332C31.1994 14.4408 32.1194 16.437 32.2863 18.5625H28.8322C28.6777 17.3515 28.1254 16.2261 27.2622 15.3628C26.3989 14.4996 25.2735 13.9473 24.0625 13.7927V10.3387Z" fill="#1FD8EE"/>
<path d="M12.8611 30.7362L13.839 29.7583C15.7292 31.4161 18.1609 32.3246 20.675 32.3124C23.1892 32.3001 25.6119 31.368 27.4859 29.6919L29.1812 30.822C29.2941 30.8973 29.4268 30.9375 29.5625 30.9375H34.375V29.5625H29.7707L28.4647 28.6919C30.0623 26.8285 30.9396 24.4545 30.9375 22C30.9375 21.8177 30.8651 21.6428 30.7361 21.5139C30.6072 21.3849 30.4323 21.3125 30.25 21.3125H25.4375C25.2552 21.3125 25.0803 21.3849 24.9514 21.5139C24.8224 21.6428 24.75 21.8177 24.75 22C24.75 22.8158 24.5081 23.6134 24.0548 24.2917C23.6016 24.9701 22.9573 25.4988 22.2036 25.811C21.4498 26.1232 20.6204 26.2049 19.8203 26.0457C19.0201 25.8866 18.2851 25.4937 17.7082 24.9168C17.1313 24.3399 16.7384 23.6049 16.5793 22.8047C16.4201 22.0046 16.5018 21.1752 16.814 20.4214C17.1262 19.6677 17.6549 19.0234 18.3333 18.5702C19.0116 18.1169 19.8092 17.875 20.625 17.875C20.8073 17.875 20.9822 17.8026 21.1111 17.6736C21.2401 17.5447 21.3125 17.3698 21.3125 17.1875V12.375C21.3125 12.1927 21.2401 12.0178 21.1111 11.8889C20.9822 11.7599 20.8073 11.6875 20.625 11.6875C18.8019 11.6854 17.0112 12.1696 15.4376 13.0903L13.5486 11.2013C13.4197 11.0724 13.2448 11 13.0625 11H8.25V12.375H12.7777L14.2793 13.8766C13.1733 14.7386 12.2551 15.8175 11.5809 17.047C10.9067 18.2765 10.4907 19.6308 10.3584 21.0267C10.2261 22.4227 10.3804 23.831 10.8117 25.1653C11.243 26.4995 11.9423 27.7316 12.8667 28.786L12.0902 29.5625H7.5625V30.9375H12.375C12.5573 30.9375 12.7322 30.8651 12.8611 30.7362ZM26.0822 22.6875H29.5363C29.4297 24.069 29.0034 25.4068 28.291 26.5953C27.5786 27.7837 26.5996 28.7902 25.4314 29.5353C24.2632 30.2804 22.9377 30.7437 21.5597 30.8885C20.1817 31.0334 18.7888 30.8558 17.4912 30.3699L18.8481 27.2038C19.6209 27.4683 20.4429 27.5573 21.2543 27.4642C22.0658 27.3712 22.8463 27.0985 23.5392 26.6659C24.232 26.2334 24.8197 25.6519 25.2597 24.9637C25.6996 24.2755 25.9806 23.4979 26.0822 22.6875ZM19.9375 16.5427C18.7608 16.6913 17.6641 17.2173 16.8115 18.0418L14.1619 15.8338C15.6815 14.2361 17.7391 13.2581 19.9375 13.0887V16.5427ZM13.291 16.8978L15.947 19.1112C15.1929 20.3296 14.9449 21.7945 15.2559 23.1933C15.567 24.5921 16.4125 25.8138 17.6119 26.5978L16.2447 29.788C15.1587 29.1782 14.2123 28.348 13.4663 27.3507C12.7203 26.3534 12.1912 25.211 11.9131 23.9971C11.6349 22.7831 11.6138 21.5243 11.8511 20.3017C12.0884 19.079 12.5789 17.9196 13.291 16.8978V16.8978Z" fill="#1FD8EE"/>
<path d="M7.5625 32.3125H8.9375V33.6875H7.5625V32.3125Z" fill="#1FD8EE"/>
<path d="M10.3125 32.3125H14.4375V33.6875H10.3125V32.3125Z" fill="#1FD8EE"/>
<path d="M33 32.3125H34.375V33.6875H33V32.3125Z" fill="#1FD8EE"/>
<path d="M27.5 32.3125H31.625V33.6875H27.5V32.3125Z" fill="#1FD8EE"/>
<path d="M35.0625 8.25H36.4375V9.625H35.0625V8.25Z" fill="#1FD8EE"/>
<path d="M30.25 8.25H33.6875V9.625H30.25V8.25Z" fill="#1FD8EE"/>
<path d="M13.75 8.25H15.125V9.625H13.75V8.25Z" fill="#1FD8EE"/>
<path d="M8.25 8.25H12.375V9.625H8.25V8.25Z" fill="#1FD8EE"/>
</svg>
