<svg width="39" height="40" viewBox="0 0 39 40" fill="none" xmlns="http://www.w3.org/2000/svg">
<path d="M26 39.2048C27.4359 39.2048 28.6 38.0347 28.6 36.5912V2.61366C28.6 1.17017 27.4359 0 26 0H4.55C2.03829 0.00288067 0.00286562 2.049 0 4.5739V34.6309C0.00286562 37.1558 2.03829 39.202 4.55 39.2048H26ZM27.3 2.61366V28.7502C27.3 29.472 26.718 30.057 26 30.057H5.2V1.30683H26C26.718 1.30683 27.3 1.89191 27.3 2.61366ZM1.3 4.5739C1.30195 3.02197 2.38783 1.68478 3.9 1.37217V30.1093C2.91229 30.2513 1.99858 30.7163 1.3 31.4325V4.5739ZM1.3 34.6309C1.30215 32.8275 2.75597 31.366 4.55 31.3639H26C26.4578 31.3612 26.9065 31.2357 27.3 31.0006V32.6707H4.55C4.19102 32.6707 3.9 32.9632 3.9 33.3241C3.9 33.685 4.19102 33.9775 4.55 33.9775H27.3V35.2844H4.55C4.19102 35.2844 3.9 35.5769 3.9 35.9378C3.9 36.2986 4.19102 36.5912 4.55 36.5912H27.3C27.3 37.3129 26.718 37.898 26 37.898H4.55C2.75597 37.8958 1.30215 36.4344 1.3 34.6309Z" fill="#1FD8EE"/>
<path d="M8.44996 28.0968H24.05C24.7679 28.0968 25.35 27.5118 25.35 26.79V24.8298C25.35 24.108 24.7679 23.5229 24.05 23.5229H8.44996C7.73199 23.5229 7.14996 24.108 7.14996 24.8298V26.79C7.14996 27.5118 7.73199 28.0968 8.44996 28.0968ZM8.44996 24.8298H24.05V26.79H8.44996V24.8298Z" fill="#1FD8EE"/>
<path d="M34.45 0C31.9383 0.00288067 29.9029 2.049 29.9 4.5739V28.6065C29.9001 28.7957 29.9409 28.9828 30.0196 29.1547L33.8 37.3883V38.5514C33.8 38.9123 34.091 39.2048 34.45 39.2048C34.809 39.2048 35.1 38.9123 35.1 38.5514V37.3883L38.8804 29.1553C38.9593 28.9832 39.0001 28.796 39 28.6065V4.5739C38.9972 2.049 36.9617 0.00288067 34.45 0V0ZM33.8 6.53414H35.1V16.3353C35.1 16.6962 34.809 16.9888 34.45 16.9888C34.091 16.9888 33.8 16.6962 33.8 16.3353V6.53414ZM34.45 18.2956C35.527 18.2956 36.4 17.418 36.4 16.3353V6.53414H37.7V28.0968H31.2V6.53414H32.5V16.3353C32.5 17.418 33.3731 18.2956 34.45 18.2956ZM34.45 35.6849L31.566 29.4036H37.3341L34.45 35.6849ZM37.7 5.22731H31.2V4.5739C31.2 2.76954 32.6551 1.30683 34.45 1.30683C36.245 1.30683 37.7 2.76954 37.7 4.5739V5.22731Z" fill="#1FD8EE"/>
<path d="M7.80587 17.3156C8.26087 18.0997 9.18647 18.4375 10.3818 18.4375C10.6955 18.4346 11.0087 18.4127 11.3198 18.3722C12.4384 20.7192 14.2116 22.2162 16.25 22.2162C18.2884 22.2162 20.0616 20.7192 21.1803 18.3728C21.4913 18.4134 21.8046 18.4352 22.1182 18.4382C23.3129 18.4382 24.2424 18.1016 24.6942 17.3162C25.4417 16.0133 24.4621 14.1844 22.6961 12.4156C24.4621 10.6468 25.4417 8.81794 24.6942 7.51503C24.1306 6.53491 22.8196 6.2559 21.1796 6.4565C20.0603 4.11009 18.2878 2.61377 16.25 2.61377C14.2123 2.61377 12.4391 4.11074 11.3204 6.45584C9.68047 6.2559 8.36942 6.5336 7.80587 7.51437C7.05837 8.81728 8.03792 10.6462 9.80397 12.415C8.03792 14.1838 7.05837 16.0127 7.80587 17.3156ZM8.93232 16.6622C8.66062 16.1891 9.07987 15.1698 10.1504 13.9407C10.2459 15.0206 10.4654 16.0858 10.8043 17.115C9.80657 17.1882 9.13642 17.0189 8.93232 16.6622ZM17.55 10.1516C18.6923 10.8086 19.7745 11.566 20.7838 12.415C19.7745 13.264 18.6923 14.0214 17.55 14.6784C17.1067 14.9359 16.6751 15.1645 16.25 15.3782C15.8256 15.1645 15.3933 14.9359 14.95 14.6784C13.8077 14.0214 12.7256 13.264 11.7163 12.415C12.7256 11.566 13.8077 10.8086 14.95 10.1516C15.3933 9.89411 15.8256 9.66607 16.25 9.4524C16.6745 9.66607 17.1067 9.89411 17.55 10.1516ZM17.7489 8.76828C18.5943 8.41386 19.468 8.13189 20.3606 7.92537C20.7133 8.90224 20.9441 9.91931 21.0477 10.9533C20.1451 10.2411 19.1935 9.59416 18.2 9.01723C18.0518 8.93359 17.8997 8.85191 17.7489 8.76828ZM21.0477 13.8767C20.9437 14.9116 20.7125 15.9295 20.3593 16.9072C19.4657 16.6999 18.5912 16.4171 17.745 16.0617C17.8971 15.9774 18.0518 15.897 18.2 15.8101C19.1935 15.234 20.1451 14.5879 21.0477 13.8767ZM14.755 16.0617C13.9082 16.4186 13.0327 16.7028 12.1381 16.9111C11.7849 15.9332 11.5537 14.915 11.4498 13.8799C12.3532 14.5911 13.3057 15.237 14.3 15.8127C14.4502 15.8977 14.6055 15.978 14.755 16.0617ZM14.3 9.01723C13.3066 9.59332 12.355 10.2394 11.4524 10.9507C11.5559 9.9169 11.7867 8.90003 12.1394 7.92341C13.0321 8.12963 13.9058 8.41161 14.7511 8.76632C14.6003 8.85191 14.4482 8.93359 14.3 9.01723ZM16.25 20.9094C14.8532 20.9094 13.574 19.8169 12.675 18.1141C13.9051 17.8015 15.1023 17.3704 16.25 16.8268C17.3977 17.3705 18.5949 17.8016 19.825 18.1141C18.9254 19.8175 17.6469 20.9094 16.25 20.9094ZM23.5677 16.6622C23.3636 17.0189 22.6941 17.1849 21.6957 17.115C22.0347 16.0858 22.2541 15.0206 22.3496 13.9407C23.4202 15.1698 23.8394 16.1891 23.5677 16.6622ZM22.1293 7.69537C22.8878 7.69537 23.3942 7.86526 23.5677 8.16779C23.8394 8.64086 23.4202 9.66019 22.3496 10.8893C22.2547 9.81089 22.0366 8.74709 21.6996 7.71889C21.8452 7.7104 21.996 7.69537 22.1293 7.69537ZM16.25 3.9206C17.6449 3.9206 18.9215 5.00919 19.8205 6.70806C18.5918 7.0248 17.3961 7.45935 16.25 8.00574C15.1036 7.45948 13.9078 7.02493 12.6789 6.70806C13.5785 5.00919 14.8551 3.9206 16.25 3.9206ZM8.93232 8.16779C9.10587 7.86526 9.61157 7.69537 10.3708 7.69537C10.504 7.69537 10.6548 7.70844 10.803 7.71889C10.466 8.74709 10.2479 9.81089 10.153 10.8893C9.07987 9.66019 8.66062 8.64086 8.93232 8.16779Z" fill="#1FD8EE"/>
<path d="M14.3 12.4148C14.3 13.4974 15.173 14.3751 16.25 14.3751C17.3269 14.3751 18.2 13.4974 18.2 12.4148C18.2 11.3322 17.3269 10.4546 16.25 10.4546C15.173 10.4546 14.3 11.3322 14.3 12.4148ZM16.25 11.7614C16.609 11.7614 16.9 12.054 16.9 12.4148C16.9 12.7757 16.609 13.0682 16.25 13.0682C15.891 13.0682 15.6 12.7757 15.6 12.4148C15.6 12.054 15.891 11.7614 16.25 11.7614Z" fill="#1FD8EE"/>
</svg>
