<svg width="47" height="46" viewBox="0 0 47 46" fill="none" xmlns="http://www.w3.org/2000/svg">
<path d="M0.439462 41.9667C0.879427 42.572 1.59101 42.9321 2.35001 42.9335H17.3563C17.9219 44.7037 20.4192 46.0001 23.5024 46.0001C26.5856 46.0001 29.0836 44.7037 29.6492 42.9335H44.65C45.4123 42.9324 46.1267 42.5694 46.5663 41.96C47.006 41.3505 47.1162 40.5702 46.8621 39.8668L45.0793 34.9065C45.0965 34.8904 45.1192 34.8812 45.1365 34.8643C45.5619 34.4499 45.7058 33.8329 45.5062 33.2788L39.8262 17.5292C39.6625 17.097 39.3162 16.7549 38.8761 16.5908C36.7188 15.7763 34.4288 15.3503 32.1167 15.3335V11.6535L39.2364 8.68338C39.6677 8.50486 39.948 8.09102 39.948 7.63267C39.948 7.17431 39.6677 6.76047 39.2364 6.58195L24.1196 0.332083C23.7328 0.171858 23.2962 0.171858 22.9094 0.332083L7.76363 6.65172C7.40362 6.80467 7.14756 7.12602 7.0837 7.50502C7.06611 7.55748 7.0548 7.61177 7.05001 7.66678V12.0858L4.34986 17.3713C4.01453 18.0187 4.01451 18.7839 4.34979 19.4314C4.68508 20.0789 5.31554 20.5313 6.04735 20.6495L1.50245 33.2735C1.29841 33.8255 1.43918 34.4433 1.86356 34.8582C1.88236 34.8773 1.90665 34.8881 1.92623 34.9057L0.141012 39.8668C-0.112426 40.5728 -0.00122901 41.3552 0.439462 41.9667ZM7.13461 34.2847C14.5308 32.8664 18.7138 35.4293 20.9824 38.0613C21.0607 38.1533 21.1296 38.243 21.2033 38.3335H5.67604L7.13461 34.2847ZM39.8717 34.2847L41.3295 38.3335H25.7975C25.8704 38.243 25.9377 38.1541 26.0176 38.0621C28.2932 35.4293 32.4833 32.8671 39.8717 34.2847ZM23.5 44.4668C20.7865 44.4668 18.8838 43.3038 18.8078 42.2335L19.4141 39.8668H22.2576C22.4493 40.1955 22.6176 40.5367 22.7613 40.888C22.8719 41.1945 23.1679 41.3995 23.5 41.3995C23.8321 41.3995 24.1282 41.1945 24.2387 40.888C24.3815 40.5366 24.549 40.1954 24.74 39.8668H27.5914L28.1953 42.2335C28.1217 43.3038 26.2166 44.4668 23.5 44.4668ZM45.2861 41.0804C45.1405 41.2827 44.9028 41.4022 44.65 41.4001H29.5975L29.2058 39.8668H42.4355C42.6899 39.8671 42.9286 39.7464 43.0756 39.5432C43.2227 39.34 43.2597 39.0796 43.175 38.8448L41.6796 34.6933C42.2749 34.8467 42.8867 35.0268 43.5197 35.23H43.5361L45.3863 40.3667C45.477 40.6057 45.4403 40.8732 45.2884 41.0804H45.2861ZM30.55 24.1501C30.55 24.8256 27.8734 26.0668 23.5 26.0668C19.1267 26.0668 16.45 24.8256 16.45 24.1501V12.3435L22.8796 15.0015C23.2665 15.1614 23.703 15.1614 24.0899 15.0015L30.55 12.3051V24.1501ZM8.61668 12.0858V9.10582L14.8833 11.6964V15.348C13.4231 15.3411 11.9681 15.5195 10.5546 15.8786L8.61668 12.0858ZM23.5102 1.74428L37.7567 7.63305L23.4828 13.5862L11.0176 8.43345H23.5C23.9326 8.43345 24.2833 8.0902 24.2833 7.66678C24.2833 7.24336 23.9326 6.90012 23.5 6.90012H11.1609L23.5102 1.74428ZM5.78493 18.8034C5.6404 18.5778 5.62761 18.2946 5.75125 18.0574L7.83335 13.9811L9.91545 18.0574C10.0368 18.295 10.0238 18.5771 9.88113 18.8031C9.73849 19.029 9.48652 19.1666 9.21515 19.1668H6.45155C6.17961 19.1684 5.92666 19.0305 5.78493 18.8034ZM7.69078 20.7001H9.21515C10.0296 20.7001 10.786 20.2873 11.2142 19.6091C11.6423 18.931 11.6812 18.0842 11.3168 17.3713L11.273 17.2854C12.4551 17.007 13.6675 16.8713 14.8833 16.8813V24.1501C14.8833 26.4149 19.2183 27.6001 23.5 27.6001C27.7817 27.6001 32.1167 26.4149 32.1167 24.1501V16.8668C34.2501 16.883 36.3626 17.281 38.3497 18.0413L44.0233 33.7802C42.909 33.4164 41.7738 33.1166 40.6237 32.8825C40.5809 32.8701 40.5371 32.8611 40.4929 32.8556C35.6409 31.8973 29.2324 31.9678 24.8207 37.0723C24.6241 37.3023 24.4486 37.5239 24.2833 37.7424V29.9001C24.2833 29.4767 23.9326 29.1335 23.5 29.1335C23.0674 29.1335 22.7167 29.4767 22.7167 29.9001V37.7424C22.5514 37.5231 22.3767 37.3008 22.1793 37.0723C20.0479 34.599 15.3212 31.0678 6.50168 32.8556C6.48601 32.8556 6.4727 32.8633 6.45703 32.8648C5.27944 33.1062 4.11733 33.4149 2.97668 33.7894L7.69078 20.7001ZM1.61916 40.3751L3.46939 35.2384H3.47488C4.11251 35.0314 4.72821 34.8551 5.32589 34.6956L3.83051 38.8448C3.74584 39.0795 3.7828 39.3397 3.92965 39.5429C4.07649 39.746 4.31494 39.8668 4.5692 39.8668H17.7997L17.408 41.4001H2.35001C2.09747 41.4021 1.86003 41.2826 1.71473 41.0804C1.56658 40.8749 1.53087 40.6113 1.61916 40.3751Z" fill="#1FD8EE"/>
</svg>
