<svg width="47" height="47" viewBox="0 0 47 47" fill="none" xmlns="http://www.w3.org/2000/svg">
<path d="M45.0746 35.6661C45.0942 35.6481 45.1185 35.6371 45.1373 35.6183C45.5612 35.1955 45.7023 34.5656 45.4992 34.0023L39.8193 17.9111C39.6547 17.4684 39.3073 17.1181 38.8659 16.9499C38.5683 16.8434 38.2839 16.7494 37.9996 16.6585L21.7995 0.459187C21.1877 -0.152411 20.196 -0.152411 19.5842 0.459187L16.2613 3.78209C15.6497 4.39387 15.6497 5.38557 16.2613 5.99735L27.2052 16.9421C26.6085 17.2873 26.0606 17.7107 25.5759 18.2009L10.5085 3.13349C10.0604 2.68556 9.38669 2.55159 8.80136 2.79403C8.21602 3.03646 7.83432 3.60757 7.83418 4.24112V17.0995C7.52896 17.2889 7.29614 17.5752 7.17305 17.9126L1.48918 34.007C1.29185 34.5725 1.43688 35.2011 1.86205 35.623C1.87928 35.6403 1.90122 35.6497 1.91923 35.6661L0.136367 40.7335C-0.117864 41.4526 -0.00731481 42.2503 0.432879 42.8731C0.873073 43.496 1.58816 43.8665 2.35085 43.8668H17.3509C17.9165 45.6755 20.4145 47.0002 23.4977 47.0002C26.5809 47.0002 29.079 45.6755 29.6445 43.8668H44.6509C45.413 43.8654 46.1271 43.4945 46.5666 42.8719C47.0061 42.2492 47.1163 41.452 46.8622 40.7335L45.0746 35.6661ZM20.691 1.56682L37.6009 18.4759L34.278 21.7988L32.9792 20.4976L34.039 19.437C34.2368 19.2386 34.3136 18.9498 34.2406 18.6793C34.1676 18.4089 33.9559 18.1979 33.6852 18.1259C33.4145 18.0539 33.126 18.1317 32.9283 18.3302L31.8684 19.39L30.7608 18.2824L31.8206 17.2225C32.0243 17.0258 32.1059 16.7346 32.0342 16.4607C31.9626 16.1868 31.7487 15.973 31.4748 15.9013C31.2009 15.8296 30.9097 15.9113 30.713 16.1149L29.6532 17.1747L28.5447 16.0663L29.6054 15.0057C29.809 14.809 29.8907 14.5178 29.819 14.2439C29.7473 13.97 29.5334 13.7561 29.2595 13.6844C28.9857 13.6128 28.6944 13.6944 28.4977 13.8981L27.4371 14.9618L26.3295 13.8534L27.3893 12.7936C27.593 12.5969 27.6746 12.3056 27.6029 12.0318C27.5312 11.7579 27.3174 11.544 27.0435 11.4723C26.7696 11.4006 26.4784 11.4823 26.2817 11.6859L25.2242 12.7426L24.1166 11.635L25.1741 10.5752C25.3777 10.3785 25.4594 10.0872 25.3877 9.81336C25.316 9.53948 25.1021 9.3256 24.8282 9.25391C24.5543 9.18222 24.2631 9.26389 24.0664 9.46752L23.0066 10.5274L21.8982 9.41895L22.9588 8.3591C23.1624 8.16243 23.2441 7.87118 23.1724 7.59731C23.1007 7.32343 22.8868 7.10955 22.6129 7.03786C22.3391 6.96617 22.0478 7.04784 21.8512 7.25147L20.7905 8.31132L19.6821 7.20682L20.7427 6.14697C21.0486 5.84089 21.0484 5.34481 20.7423 5.03895C20.4363 4.73308 19.9402 4.73326 19.6343 5.03934L18.5745 6.09605L17.3689 4.88972L20.691 1.56682ZM34.9375 29.7668H32.1175V28.9835C32.1175 28.5509 31.7668 28.2002 31.3342 28.2002C30.9016 28.2002 30.5509 28.5509 30.5509 28.9835V29.7668H28.9842V28.9835C28.9842 28.5509 28.6335 28.2002 28.2009 28.2002C27.7682 28.2002 27.4175 28.5509 27.4175 28.9835V29.7668H25.8509V28.9835C25.8509 28.5509 25.5001 28.2002 25.0675 28.2002C24.6349 28.2002 24.2842 28.5509 24.2842 28.9835V29.7668H22.7175V28.9835C22.7175 28.5509 22.3668 28.2002 21.9342 28.2002C21.5016 28.2002 21.1509 28.5509 21.1509 28.9835V29.7668H19.5842V28.9835C19.5842 28.5509 19.2335 28.2002 18.8009 28.2002C18.3682 28.2002 18.0175 28.5509 18.0175 28.9835V29.7668H16.4509V28.9835C16.4509 28.5509 16.1001 28.2002 15.6675 28.2002C15.2349 28.2002 14.8842 28.5509 14.8842 28.9835V29.7668H13.3175V28.9835C13.3175 28.5509 12.9668 28.2002 12.5342 28.2002C12.1016 28.2002 11.7509 28.5509 11.7509 28.9835V29.7668H9.40085V27.4168H10.1842C10.6168 27.4168 10.9675 27.0661 10.9675 26.6335C10.9675 26.2009 10.6168 25.8502 10.1842 25.8502H9.40085V24.2835H10.1842C10.6168 24.2835 10.9675 23.9328 10.9675 23.5002C10.9675 23.0675 10.6168 22.7168 10.1842 22.7168H9.40085V21.1502H10.1842C10.6168 21.1502 10.9675 20.7994 10.9675 20.3668C10.9675 19.9342 10.6168 19.5835 10.1842 19.5835H9.40085V18.0168H10.1842C10.6168 18.0168 10.9675 17.6661 10.9675 17.2335C10.9675 16.8009 10.6168 16.4502 10.1842 16.4502H9.40085V14.8835H10.1842C10.6168 14.8835 10.9675 14.5328 10.9675 14.1002C10.9675 13.6675 10.6168 13.3168 10.1842 13.3168H9.40085V11.7502H10.1842C10.6168 11.7502 10.9675 11.3994 10.9675 10.9668C10.9675 10.5342 10.6168 10.1835 10.1842 10.1835H9.40085V8.61682H10.1842C10.6168 8.61682 10.9675 8.26611 10.9675 7.83349C10.9675 7.40086 10.6168 7.05015 10.1842 7.05015H9.40085V4.24112L34.9375 29.7668ZM7.83418 20.8078V29.7668C7.83418 30.6321 8.53561 31.3335 9.40085 31.3335H34.9266C35.5601 31.3334 36.1312 30.9517 36.3736 30.3663C36.6161 29.781 36.4821 29.1072 36.0342 28.6592L26.6835 19.3085C27.1741 18.8163 27.743 18.4089 28.3669 18.103L33.1703 22.9064C33.7821 23.518 34.7738 23.518 35.3856 22.9064L38.7085 19.5835C38.7187 19.5733 38.7257 19.5608 38.7359 19.5498L44.0211 34.5115C32.9056 30.8102 27.2201 35.0308 24.8223 37.8743C24.6218 38.1093 24.444 38.3443 24.274 38.5699V33.6835C24.274 33.2509 23.9233 32.9002 23.4907 32.9002C23.058 32.9002 22.7073 33.2509 22.7073 33.6835V38.5527C22.5444 38.3326 22.3713 38.1078 22.177 37.8775C17.7708 32.6691 11.3717 32.5915 6.51818 33.5691C6.44211 33.5737 6.36713 33.5895 6.29572 33.6161C5.17061 33.854 4.0601 34.1564 2.96968 34.5217L7.83418 20.8078ZM41.324 39.1668H25.7976C25.872 39.0736 25.9394 38.9827 26.0193 38.8887C28.287 36.1988 32.4716 33.5785 39.8663 35.0285L41.324 39.1668ZM5.6714 39.1668L7.12918 35.0308C14.5192 33.5832 18.7084 36.2011 20.9832 38.8895C21.0616 38.9835 21.1305 39.0744 21.2041 39.1668H5.6714ZM1.71322 41.9727C1.56297 41.7637 1.52601 41.4938 1.61452 41.2521L3.46475 36.0037H3.4765C4.111 35.7922 4.72435 35.6121 5.32125 35.4507L3.82587 39.6901C3.74152 39.9297 3.77864 40.1954 3.92544 40.4028C4.07224 40.6101 4.31049 40.7334 4.56455 40.7335H17.7951L17.4034 42.3002H2.35085C2.09721 42.3033 1.85845 42.1807 1.71322 41.9727ZM23.5009 45.4335C20.7858 45.4335 18.8792 44.2436 18.8079 43.1501L19.4087 40.7335H22.2585C22.4495 41.0694 22.6177 41.4177 22.7622 41.7761C22.8727 42.0893 23.1687 42.2988 23.5009 42.2988C23.833 42.2988 24.129 42.0893 24.2395 41.7761C24.3822 41.4173 24.5497 41.069 24.7409 40.7335H27.5867L28.1907 43.1501C28.1163 44.2436 26.2128 45.4335 23.5009 45.4335ZM45.2861 41.9727C45.1411 42.1797 44.9036 42.3021 44.6509 42.3002H29.5921L29.2004 40.7335H42.4309C42.685 40.7334 42.9232 40.6101 43.07 40.4028C43.2168 40.1954 43.2539 39.9297 43.1696 39.6901L41.6742 35.446C42.2703 35.6027 42.8829 35.7867 43.5174 35.9943H43.5315L45.3817 41.2427C45.4724 41.4873 45.4354 41.761 45.283 41.9727H45.2861Z" fill="#1FD8EE"/>
</svg>
