<svg width="40" height="40" viewBox="0 0 40 40" fill="none" xmlns="http://www.w3.org/2000/svg">
<g clip-path="url(#clip0_34_118)">
<path d="M36.0938 0H3.90625C1.75234 0 0 1.75234 0 3.90625V24.375C0 26.5289 1.75234 28.2812 3.90625 28.2812H12.9798C13.0091 28.815 13.0982 29.333 13.2405 29.8289L8.8225 34.247C8.63102 34.4384 8.55234 34.7154 8.61461 34.9789C8.67688 35.2424 8.87102 35.455 9.12789 35.5405L12.0719 36.5219L13.0532 39.4659C13.1388 39.7227 13.3513 39.917 13.6148 39.9791C13.6744 39.9932 13.7345 40.0001 13.7943 40.0001C13.9991 40.0001 14.1985 39.9195 14.3467 39.7712L19.2375 34.8805C19.488 34.9076 19.7423 34.922 19.9998 34.922C20.2191 34.922 20.4359 34.9113 20.65 34.8916L25.5297 39.7712C25.6779 39.9195 25.8773 40.0001 26.0821 40.0001C26.1419 40.0001 26.2021 39.9932 26.2616 39.9791C26.5252 39.917 26.7377 39.7227 26.8232 39.4659L27.8045 36.5219L30.7485 35.5405C31.0054 35.4549 31.1996 35.2424 31.2618 34.9789C31.324 34.7154 31.2454 34.4384 31.0539 34.247L26.7309 29.9239C26.8896 29.3994 26.9887 28.8492 27.02 28.2812H36.0938C38.2477 28.2812 40 26.5289 40 24.375V3.90625C40 1.75234 38.2477 0 36.0938 0ZM14.1358 37.7725L13.4307 35.6572C13.353 35.4239 13.1699 35.2408 12.9366 35.163L10.8212 34.458L13.8979 31.3812C14.6952 32.7697 15.9528 33.8614 17.4609 34.4474L14.1358 37.7725ZM14.5312 27.8906C14.5312 24.8752 16.9845 22.4219 20 22.4219C23.0155 22.4219 25.4688 24.8752 25.4688 27.8906C25.4688 30.9061 23.0155 33.3594 20 33.3594C16.9845 33.3594 14.5312 30.9061 14.5312 27.8906ZM29.0554 34.458L26.94 35.163C26.7067 35.2408 26.5236 35.4238 26.4459 35.6572L25.7408 37.7725L22.4496 34.4813C23.9688 33.9148 25.2409 32.8373 26.0562 31.4588L29.0554 34.458ZM38.4375 24.375C38.4375 25.6673 37.3861 26.7188 36.0938 26.7188H26.933C26.3734 23.3976 23.4778 20.8594 20 20.8594C16.5222 20.8594 13.6266 23.3976 13.067 26.7188H3.90625C2.61391 26.7188 1.5625 25.6673 1.5625 24.375V3.90625C1.5625 2.61391 2.61391 1.5625 3.90625 1.5625H36.0938C37.3861 1.5625 38.4375 2.61391 38.4375 3.90625V24.375Z" fill="#1FD8EE"/>
<path d="M15.3125 7.03125H24.6875C25.119 7.03125 25.4688 6.68148 25.4688 6.25C25.4688 5.81852 25.119 5.46875 24.6875 5.46875H15.3125C14.881 5.46875 14.5312 5.81852 14.5312 6.25C14.5312 6.68148 14.881 7.03125 15.3125 7.03125Z" fill="#1FD8EE"/>
<path d="M9.21875 10.1562H18.5938C19.0252 10.1562 19.375 9.80648 19.375 9.375C19.375 8.94352 19.0252 8.59375 18.5938 8.59375H9.21875C8.78727 8.59375 8.4375 8.94352 8.4375 9.375C8.4375 9.80648 8.78727 10.1562 9.21875 10.1562Z" fill="#1FD8EE"/>
<path d="M20.9375 9.375C20.9375 9.80648 21.2873 10.1562 21.7188 10.1562H30.7812C31.2127 10.1562 31.5625 9.80648 31.5625 9.375C31.5625 8.94352 31.2127 8.59375 30.7812 8.59375H21.7188C21.2873 8.59375 20.9375 8.94352 20.9375 9.375Z" fill="#1FD8EE"/>
<path d="M34.8438 14.0625H5.15625C4.72477 14.0625 4.375 14.4123 4.375 14.8438C4.375 15.2752 4.72477 15.625 5.15625 15.625H34.8438C35.2752 15.625 35.625 15.2752 35.625 14.8438C35.625 14.4123 35.2752 14.0625 34.8438 14.0625Z" fill="#1FD8EE"/>
<path d="M20 17.1875C19.5695 17.1875 19.2188 17.5383 19.2188 17.9688C19.2188 18.3992 19.5695 18.75 20 18.75C20.4305 18.75 20.7812 18.3992 20.7812 17.9688C20.7812 17.5383 20.4305 17.1875 20 17.1875Z" fill="#1FD8EE"/>
<path d="M16.875 17.1875H5.15625C4.72578 17.1875 4.375 17.5383 4.375 17.9688C4.375 18.3992 4.72578 18.75 5.15625 18.75H16.875C17.3055 18.75 17.6562 18.3992 17.6562 17.9688C17.6562 17.5383 17.3055 17.1875 16.875 17.1875Z" fill="#1FD8EE"/>
<path d="M34.8438 17.1875H23.125C22.6945 17.1875 22.3438 17.5383 22.3438 17.9688C22.3438 18.3992 22.6945 18.75 23.125 18.75H34.8438C35.2742 18.75 35.625 18.3992 35.625 17.9688C35.625 17.5383 35.2742 17.1875 34.8438 17.1875Z" fill="#1FD8EE"/>
<path d="M34.6875 20.3125H27.1875C26.756 20.3125 26.4062 20.6623 26.4062 21.0938C26.4062 21.5252 26.756 21.875 27.1875 21.875H34.6875C35.119 21.875 35.4688 21.5252 35.4688 21.0938C35.4688 20.6623 35.119 20.3125 34.6875 20.3125Z" fill="#1FD8EE"/>
<path d="M20 23.9844C17.8461 23.9844 16.0938 25.7367 16.0938 27.8906C16.0938 30.0445 17.8461 31.7969 20 31.7969C22.1539 31.7969 23.9062 30.0445 23.9062 27.8906C23.9062 25.7367 22.1539 23.9844 20 23.9844ZM20 30.2344C18.7077 30.2344 17.6562 29.183 17.6562 27.8906C17.6562 26.5983 18.7077 25.5469 20 25.5469C21.2923 25.5469 22.3438 26.5983 22.3438 27.8906C22.3438 29.183 21.2923 30.2344 20 30.2344Z" fill="#1FD8EE"/>
</g>
<defs>
<clipPath id="clip0_34_118">
<rect width="40" height="40" fill="white"/>
</clipPath>
</defs>
</svg>
