<svg width="44" height="43" viewBox="0 0 44 43" fill="none" xmlns="http://www.w3.org/2000/svg">
<path d="M20.5333 3.58325H29.3333V5.01659H20.5333V3.58325Z" fill="#1FD8EE"/>
<path d="M13.2 7.16675H16.1333V8.60008H13.2V7.16675Z" fill="#1FD8EE"/>
<path d="M13.2 10.0332H16.1333V11.4665H13.2V10.0332Z" fill="#1FD8EE"/>
<path d="M13.2 12.8999H16.1333V14.3332H13.2V12.8999Z" fill="#1FD8EE"/>
<path d="M13.2 15.7666H16.1333V17.1999H13.2V15.7666Z" fill="#1FD8EE"/>
<path d="M13.2 18.6333H16.1333V20.0666H13.2V18.6333Z" fill="#1FD8EE"/>
<path d="M18.3334 7.16675H23.4667V8.60008H18.3334V7.16675Z" fill="#1FD8EE"/>
<path d="M18.3334 10.0332H23.4667V11.4665H18.3334V10.0332Z" fill="#1FD8EE"/>
<path d="M18.3334 12.8999H23.4667V14.3332H18.3334V12.8999Z" fill="#1FD8EE"/>
<path d="M18.3334 15.7666H23.4667V17.1999H18.3334V15.7666Z" fill="#1FD8EE"/>
<path d="M18.3334 18.6333H23.4667V20.0666H18.3334V18.6333Z" fill="#1FD8EE"/>
<path d="M25.6666 7.16675H36.6666V8.60008H25.6666V7.16675Z" fill="#1FD8EE"/>
<path d="M25.6666 10.0332H36.6666V11.4665H25.6666V10.0332Z" fill="#1FD8EE"/>
<path d="M25.6666 12.8999H36.6666V14.3332H25.6666V12.8999Z" fill="#1FD8EE"/>
<path d="M25.6666 15.7666H36.6666V17.1999H25.6666V15.7666Z" fill="#1FD8EE"/>
<path d="M25.6666 18.6333H36.6666V20.0666H25.6666V18.6333Z" fill="#1FD8EE"/>
<path d="M13.2 21.5H16.1333V22.9333H13.2V21.5Z" fill="#1FD8EE"/>
<path d="M13.2 24.3667H16.1333V25.8H13.2V24.3667Z" fill="#1FD8EE"/>
<path d="M13.2 27.2334H16.1333V28.6667H13.2V27.2334Z" fill="#1FD8EE"/>
<path d="M18.3334 21.5H23.4667V22.9333H18.3334V21.5Z" fill="#1FD8EE"/>
<path d="M18.3334 24.3667H23.4667V25.8H18.3334V24.3667Z" fill="#1FD8EE"/>
<path d="M18.3334 27.2334H23.4667V28.6667H18.3334V27.2334Z" fill="#1FD8EE"/>
<path d="M25.6666 21.5H36.6666V22.9333H25.6666V21.5Z" fill="#1FD8EE"/>
<path d="M25.6666 24.3667H36.6666V25.8H25.6666V24.3667Z" fill="#1FD8EE"/>
<path d="M38.1333 0H11.7333C10.4865 0 9.53329 0.931527 9.53329 2.15V35.1167H11V2.15C11 1.71993 11.2932 1.43333 11.7333 1.43333H38.1333C38.5734 1.43333 38.8666 1.71993 38.8666 2.15V39.4167C38.8666 40.6351 37.9134 41.5667 36.6666 41.5667C35.4198 41.5667 34.4666 40.6351 34.4666 39.4167V36.55H3.66663V39.4167C3.66663 41.4232 5.2801 43 7.33329 43H36.6666C38.7198 43 40.3333 41.4232 40.3333 39.4167V2.15C40.3333 0.931527 39.3801 0 38.1333 0ZM7.33329 41.5667C6.08648 41.5667 5.13329 40.6351 5.13329 39.4167V37.9833H33V39.4167C33 40.2051 33.2932 40.9217 33.7333 41.5667H7.33329Z" fill="#1FD8EE"/>
<path d="M13.2 30.1001H16.1333V31.5334H13.2V30.1001Z" fill="#1FD8EE"/>
<path d="M13.2 32.9668H16.1333V34.4001H13.2V32.9668Z" fill="#1FD8EE"/>
<path d="M18.3334 30.1001H23.4667V31.5334H18.3334V30.1001Z" fill="#1FD8EE"/>
<path d="M18.3334 32.9668H23.4667V34.4001H18.3334V32.9668Z" fill="#1FD8EE"/>
<path d="M25.6666 27.2334H36.6666V28.6667H25.6666V27.2334Z" fill="#1FD8EE"/>
<path d="M25.6666 30.1001H36.6666V31.5334H25.6666V30.1001Z" fill="#1FD8EE"/>
<path d="M25.6666 32.9668H36.6666V34.4001H25.6666V32.9668Z" fill="#1FD8EE"/>
</svg>
