<svg width="94" height="94" viewBox="0 0 94 94" fill="none" xmlns="http://www.w3.org/2000/svg">
<circle cx="47" cy="47" r="47" fill="url(#paint0_linear_2_8)"/>
<g clip-path="url(#clip0_2_8)">
<path d="M74.0208 42.9375H72.87C72.87 42.9375 66.817 31.3354 66.7587 31.2585C66.4572 30.7537 65.9071 30.4148 65.2764 30.4148H50.9545V23.7216C50.9545 22.5293 50.0598 21.5625 48.8674 21.5625H46.0605C44.8681 21.5625 43.8295 22.5293 43.8295 23.7216V30.4148H29.8674C29.2367 30.4148 28.6865 30.7537 28.3851 31.2585C28.3268 31.3352 22.2738 42.9375 22.2738 42.9375H21.3389C20.1514 42.9375 19 43.8011 19 44.9886V46.392C19 52.2946 23.785 57.0795 29.6875 57.0795C35.59 57.0795 40.375 52.2946 40.375 46.392V44.9886C40.375 43.8011 39.5833 42.9375 38.3958 42.9375H37.245L32.5237 33.8693H43.8295V64.3125H31.8105C30.6183 64.3125 29.5795 65.2791 29.5795 66.4716V69.2784C29.5795 70.4709 30.6183 71.4375 31.8105 71.4375H63.1174C64.3098 71.4375 65.2045 70.4709 65.2045 69.2784V66.4716C65.2045 65.2791 64.3096 64.3125 63.1174 64.3125H50.9545V33.8693H62.6201L57.8988 42.9375H56.9639C55.7764 42.9375 54.625 43.8011 54.625 44.9886V46.392C54.625 52.2946 59.41 57.0795 65.3125 57.0795C71.215 57.0795 76 52.2946 76 46.392V44.9886C76 43.8011 75.2083 42.9375 74.0208 42.9375ZM33.3504 42.9375H26.1684L29.7594 36.0407L33.3504 42.9375ZM61.7934 42.9375L65.3844 36.0407L68.9754 42.9375H61.7934Z" fill="white"/>
</g>
<defs>
<linearGradient id="paint0_linear_2_8" x1="47" y1="0" x2="47" y2="94" gradientUnits="userSpaceOnUse">
<stop stop-color="#1FD8EE"/>
<stop offset="1" stop-color="#13BBCF"/>
</linearGradient>
<clipPath id="clip0_2_8">
<rect width="57" height="57" fill="white" transform="translate(19 18)"/>
</clipPath>
</defs>
</svg>
