<svg width="94" height="94" viewBox="0 0 94 94" fill="none" xmlns="http://www.w3.org/2000/svg">
<circle cx="47" cy="47" r="47" fill="url(#paint0_linear_1_27)"/>
<g clip-path="url(#clip0_1_27)">
<path d="M35.3213 23.8047C34.2861 22.9118 32.9417 22.3691 31.468 22.3691C28.2055 22.3691 25.5612 25.0147 25.5612 28.2766C25.5612 29.1611 25.7614 29.998 26.11 30.7513C28.6638 27.8552 31.7935 25.4776 35.3213 23.8047Z" fill="white"/>
<path d="M47.5005 76C62.0844 76 73.9076 64.1767 73.9076 49.5933C73.9076 36.5329 64.4246 25.6952 51.9682 23.5705V22.4966V21.4211V18.6211H54.2589C55.0161 18.6211 55.6307 17.811 55.6307 16.8106C55.6307 15.8108 55.0161 15 54.2589 15H40.7409C39.9827 15 39.3679 15.8108 39.3679 16.8106C39.3679 17.811 39.9825 18.6211 40.7409 18.6211H43.0304V21.4201V22.4956V23.5695C40.8065 23.9492 38.6794 24.6057 36.6826 25.5042C33.0709 27.1284 29.8917 29.5375 27.3616 32.5187C23.4546 37.1225 21.0922 43.0796 21.0922 49.5923C21.0934 64.1767 32.9166 76 47.5005 76ZM31.943 34.1604C33.4291 32.6624 35.1284 31.3773 36.9933 30.3553C40.1152 28.643 43.6957 27.6654 47.5015 27.6654C59.5933 27.6654 69.4289 37.5023 69.4289 49.5933C69.4289 61.6847 59.5931 71.5213 47.5015 71.5213C35.4103 71.5213 25.5736 61.6847 25.5736 49.5933C25.5726 43.5797 28.0086 38.126 31.943 34.1604Z" fill="white"/>
<path d="M34.2418 62.8515C35.0902 63.6999 36.0196 64.4675 37.0166 65.141C37.5153 65.4773 38.0316 65.7918 38.5622 66.0793C41.219 67.5226 44.2637 68.343 47.4994 68.343C47.904 68.343 48.3054 68.3296 48.7032 68.3036C50.6938 68.1785 52.6005 67.7418 54.3749 67.0415C55.0846 66.7624 55.7735 66.4393 56.4376 66.0785C56.9695 65.7899 57.4845 65.4773 57.9832 65.1402C58.9806 64.4655 59.9097 63.7001 60.758 62.8505C64.1514 59.4573 66.2495 54.7707 66.2495 49.5925C66.2495 44.4149 64.1514 39.7269 60.758 36.3339C59.9097 35.4852 58.9806 34.7185 57.9832 34.0444C57.4845 33.7075 56.9685 33.3943 56.4376 33.1056C55.7735 32.7445 55.0846 32.4238 54.3749 32.1429C52.6015 31.4436 50.6938 31.0061 48.7032 30.8804C48.3054 30.8544 47.904 30.842 47.4994 30.842C44.2627 30.842 41.219 31.662 38.5622 33.1048C38.0304 33.3933 37.5153 33.7069 37.0166 34.0436C36.0188 34.7175 35.0892 35.4842 34.2418 36.3331C30.8484 39.7259 28.7498 44.4131 28.7498 49.5917C28.7508 54.7715 30.8494 59.4581 34.2418 62.8515ZM47.5004 34.6726V48.7202L33.3783 54.1477C30.8784 44.4095 37.7143 34.6726 47.5004 34.6726Z" fill="white"/>
</g>
<defs>
<linearGradient id="paint0_linear_1_27" x1="47" y1="0" x2="47" y2="94" gradientUnits="userSpaceOnUse">
<stop stop-color="#1FD8EE"/>
<stop offset="1" stop-color="#13BBCF"/>
</linearGradient>
<clipPath id="clip0_1_27">
<rect width="61" height="61" fill="white" transform="translate(17 17)"/>
</clipPath>
</defs>
</svg>
