<svg width="94" height="94" viewBox="0 0 94 94" fill="none" xmlns="http://www.w3.org/2000/svg">
<circle cx="47" cy="47" r="47" fill="url(#paint0_linear_1_21)"/>
<g clip-path="url(#clip0_1_21)">
<path d="M49.8575 13C47.2748 13 48.1433 18.5195 48.1433 18.5195C48.1433 18.5195 42.6238 33.7409 37.3443 37.7977C36.213 38.9862 35.5045 40.3003 35.0588 41.3745C34.956 41.6374 34.8646 41.8888 34.7846 42.1173C34.4303 42.8372 33.6761 43.9457 32.0648 44.9171L37.3443 67.8749C37.3443 67.8749 45.515 68.9377 53.7085 68.7663C56.9882 69.0291 60.4622 69.052 63.2277 68.4577C72.6211 66.4579 70.267 59.91 70.267 59.91C75.3294 56.1046 72.4497 51.3507 72.4497 51.3507C76.9521 46.654 72.5297 42.7115 72.5297 42.7115C72.5297 42.7115 74.9637 38.9176 71.8212 36.0493C67.9015 32.4611 57.2625 34.8494 57.2625 34.8494C56.5197 34.9751 55.7312 35.1351 54.8856 35.3408C54.8856 35.3408 51.2059 37.0549 54.8856 25.8902C58.5767 14.7256 52.4401 13 49.8575 13Z" fill="white"/>
<path d="M33.5504 66.218L29.5508 47.214C29.3223 46.1284 28.2252 45.2371 27.1167 45.2371H19.4832L19.4717 68.1835H31.9392C33.0591 68.1949 33.779 67.3036 33.5504 66.218Z" fill="white"/>
</g>
<defs>
<linearGradient id="paint0_linear_1_21" x1="47" y1="0" x2="47" y2="94" gradientUnits="userSpaceOnUse">
<stop stop-color="#1FD8EE"/>
<stop offset="1" stop-color="#13BBCF"/>
</linearGradient>
<clipPath id="clip0_1_21">
<rect width="56" height="56" fill="white" transform="translate(19 13)"/>
</clipPath>
</defs>
</svg>
