<svg width="21" height="22" viewBox="0 0 21 22" fill="none" xmlns="http://www.w3.org/2000/svg">
<g clip-path="url(#clip0_14_221)">
<path d="M10.5 22C16.299 22 21 17.0751 21 11C21 4.92487 16.299 0 10.5 0C4.70101 0 0 4.92487 0 11C0 17.0751 4.70101 22 10.5 22Z" fill="#7AA5DA"/>
<path d="M20.9969 10.7455L16.3359 5.87061L8.74353 15.5656L14.2103 21.2927C18.178 19.7221 21 15.7066 21 11C21 10.9149 20.9988 10.8301 20.9969 10.7455Z" fill="#5786B5"/>
<path d="M15.7384 5.73721C16.157 5.56611 16.5897 5.94982 16.4978 6.41053L14.6205 15.8113C14.5328 16.252 14.0386 16.4505 13.6921 16.1839L10.8582 14.0046L9.41365 15.5498C9.1598 15.8209 8.72212 15.7106 8.61323 15.3491L7.57102 11.8831L4.77736 11.0187C4.4104 10.9053 4.38919 10.3705 4.74484 10.2246L15.7384 5.73721ZM14.3603 7.82313C14.4826 7.70977 14.3405 7.5098 14.2019 7.60016L8.17198 11.5179C8.06591 11.5868 8.01715 11.7224 8.05459 11.8475L8.87692 15.6305C8.8932 15.6883 8.97236 15.6801 8.97946 15.6201L9.16329 12.7372C9.17034 12.6661 9.20287 12.6009 9.25381 12.5535L14.3603 7.82313Z" fill="white"/>
<path d="M14.2019 7.60015C14.3405 7.50979 14.4826 7.70976 14.3603 7.82311L9.25386 12.5535C9.20296 12.6009 9.17043 12.6661 9.16334 12.7372L8.9795 15.6201C8.97245 15.6801 8.89325 15.6883 8.87696 15.6305L8.05464 11.8475C8.01716 11.7224 8.06596 11.5868 8.17203 11.5179L14.2019 7.60015Z" fill="#9EC2E5"/>
<path d="M8.90678 15.6698C8.77384 15.6201 8.66142 15.509 8.61335 15.349L7.57114 11.8831L4.77749 11.0186C4.41052 10.9053 4.38931 10.3705 4.74496 10.2245L15.7385 5.73719C16.0086 5.62681 16.285 5.74755 16.4215 5.97129C16.396 5.93055 16.3656 5.89278 16.3317 5.85944L8.87351 12.2379V12.5172L8.8325 12.4861L8.87351 14.2446V15.655C8.88414 15.6602 8.89541 15.6646 8.90673 15.6683V15.6698H8.90678Z" fill="white"/>
<path d="M16.5098 6.25271C16.5119 6.30307 16.5084 6.35639 16.4978 6.41049L14.6205 15.8112C14.5328 16.252 14.0386 16.4505 13.6921 16.1838L10.8582 14.0046L8.87341 12.5172V12.2379L16.3316 5.85938C16.3655 5.89272 16.396 5.93049 16.4214 5.97122C16.4264 5.98012 16.4313 5.98824 16.4362 5.9964C16.4405 6.0053 16.4454 6.01419 16.4497 6.02231C16.4539 6.03121 16.4582 6.0401 16.4617 6.049C16.4659 6.05862 16.4695 6.06752 16.473 6.07714C16.4759 6.08531 16.4794 6.09416 16.4822 6.10382C16.4914 6.1327 16.4985 6.16235 16.5034 6.19346C16.5063 6.21271 16.5084 6.232 16.5098 6.25271Z" fill="#D1D1D1"/>
<path d="M10.8581 14.0046L9.41359 15.5498C9.40157 15.5624 9.38886 15.575 9.3761 15.5861C9.36339 15.5972 9.35063 15.6068 9.33722 15.6165C9.33652 15.6172 9.33652 15.6172 9.33652 15.6172C9.30966 15.6357 9.28209 15.6513 9.25309 15.6639C9.23825 15.6698 9.2241 15.6757 9.20925 15.6794C9.14773 15.6987 9.08481 15.7039 9.02259 15.6972C9.00635 15.6957 8.99006 15.6928 8.97452 15.6898C8.97238 15.6898 8.97029 15.6891 8.96816 15.6883C8.95261 15.6839 8.93703 15.6795 8.92148 15.6743C8.91652 15.6728 8.9116 15.6713 8.90664 15.6683L8.87341 14.2446V12.5172L10.8581 14.0046Z" fill="#D1D1D1"/>
<path d="M9.37604 15.5861C9.36333 15.5972 9.35057 15.6075 9.33716 15.6172V15.6164C9.35061 15.6068 9.36333 15.5972 9.37604 15.5861Z" fill="#DADDE0"/>
<path d="M9.33838 15.6164V15.6183C9.33838 15.6183 9.33838 15.6164 9.33655 15.6183C9.33655 15.6183 9.33655 15.6183 9.33838 15.6164Z" fill="#DADDE0"/>
<path d="M9.25305 15.6639C9.28205 15.6513 9.30961 15.6357 9.33648 15.6172C9.30961 15.6357 9.28131 15.6512 9.25305 15.6639Z" fill="#DADDE0"/>
<path d="M9.02258 15.6964C9.0848 15.7027 9.14772 15.6978 9.20924 15.6794C9.1647 15.6935 9.11872 15.6999 9.07279 15.6999C9.05864 15.6999 9.04449 15.6992 9.03107 15.6978C9.02824 15.6978 9.02541 15.6978 9.02258 15.6964Z" fill="#DADDE0"/>
<path d="M9.07284 15.7005C9.05869 15.7005 9.04454 15.6998 9.03113 15.6984C9.04454 15.6998 9.05869 15.7005 9.07284 15.7005Z" fill="white"/>
<path d="M9.02269 15.697C9.02552 15.6984 9.02835 15.6984 9.03118 15.6984C9.01633 15.6977 9.00288 15.6955 8.98877 15.6927C9.00005 15.6949 9.01137 15.6963 9.02269 15.697Z" fill="white"/>
<path d="M9.02256 15.6961C9.01124 15.6954 8.99992 15.694 8.98864 15.6919C8.98368 15.6912 8.97875 15.6905 8.97449 15.6891C8.99003 15.6919 9.00628 15.6947 9.02256 15.6961Z" fill="#DADDE0"/>
<path d="M8.92151 15.6742C8.93705 15.6792 8.95264 15.6834 8.96819 15.6877C8.96183 15.6863 8.95547 15.6848 8.94911 15.6835C8.94628 15.6828 8.94345 15.6821 8.94132 15.6806C8.93492 15.6792 8.92787 15.6771 8.92151 15.6742Z" fill="#DADDE0"/>
<path d="M8.9491 15.6833C8.95536 15.6847 8.96163 15.6863 8.9679 15.6878C8.96163 15.687 8.95536 15.6855 8.9491 15.6833Z" fill="white"/>
<path d="M8.92156 15.6741C8.92792 15.6769 8.93502 15.679 8.94137 15.6804C8.93075 15.6783 8.92017 15.6748 8.90955 15.6705C8.91377 15.6719 8.9173 15.6734 8.92156 15.6741Z" fill="white"/>
<path d="M8.92137 15.6743C8.91721 15.6736 8.91369 15.672 8.90953 15.6706C8.90884 15.6713 8.90743 15.6706 8.90674 15.6698V15.6683C8.91159 15.6713 8.91648 15.6728 8.92137 15.6743Z" fill="#DADDE0"/>
<path d="M8.87341 14.2446L8.90664 15.6683C8.89532 15.6646 8.884 15.6602 8.87341 15.655V14.2446Z" fill="#D1D1D1"/>
<path d="M8.87341 12.5172V14.2446L8.8324 12.4861L8.87341 12.5172Z" fill="#DADDE0"/>
<path d="M14.3603 7.82312L9.25386 12.5535C9.20296 12.6009 9.17043 12.6661 9.16334 12.7372L8.97983 15.6204C8.97278 15.6804 8.89358 15.6885 8.8766 15.6308L8.05464 11.8476C8.01716 11.7224 8.06596 11.5868 8.17203 11.518L14.2019 7.60019C14.3405 7.50979 14.4827 7.70981 14.3603 7.82312Z" fill="#ADBCC9"/>
</g>
<defs>
<clipPath id="clip0_14_221">
<rect width="21" height="22" fill="white"/>
</clipPath>
</defs>
</svg>
