<svg width="22" height="22" viewBox="0 0 22 22" fill="none" xmlns="http://www.w3.org/2000/svg">
<g clip-path="url(#clip0_14_188)">
<path d="M11 22C17.0751 22 22 17.0751 22 11C22 4.92487 17.0751 0 11 0C4.92487 0 0 4.92487 0 11C0 17.0751 4.92487 22 11 22Z" fill="#6F3FAA"/>
<path d="M15.7722 6.03464C13.0947 5.38796 10.4125 4.63154 7.6667 5.59258C5.88891 6.25924 5.88891 8.18519 5.96299 9.81482C5.96299 10.2592 5.44449 10.8519 5.66668 11.3704C6.1111 12.8519 6.4815 14.3333 8.03705 15.0741C8.25928 15.2222 8.03705 15.5185 8.18521 15.7407C8.11113 15.7407 7.96297 15.8148 7.96297 15.8889C7.96297 16.2439 8.1223 16.787 8.01647 17.1371L12.7433 21.862C17.6026 21.0881 21.4005 17.1325 21.9349 12.1974L15.7722 6.03464Z" fill="#512D84"/>
<path d="M16.8191 7.73112L16.8155 7.7166C16.5216 6.52838 15.1965 5.25341 13.9796 4.98817L13.9659 4.98533C11.9977 4.60987 10.002 4.60987 8.03421 4.98533L8.02007 4.98817C6.80363 5.25341 5.47851 6.52847 5.18422 7.7166L5.18096 7.73112C4.81761 9.39044 4.81761 11.0733 5.18096 12.7326L5.18422 12.7471C5.46601 13.8846 6.69238 15.101 7.86384 15.4355V16.7619C7.86384 17.242 8.44886 17.4778 8.78152 17.1313L10.1254 15.7344C10.4169 15.7507 10.7085 15.7598 11 15.7598C11.9908 15.7598 12.982 15.6661 13.9659 15.4784L13.9796 15.4756C15.1965 15.2103 16.5215 13.9353 16.8154 12.7472L16.819 12.7326C17.1824 11.0733 17.1824 9.39053 16.8191 7.73112ZM15.7556 12.492C15.5593 13.2672 14.5533 14.2309 13.7539 14.409C12.7074 14.608 11.6525 14.693 10.5988 14.6639C10.5778 14.6633 10.5576 14.6714 10.5431 14.6865C10.3935 14.84 9.56188 15.6937 9.56188 15.6937L8.51825 16.7649C8.44194 16.8444 8.30788 16.7903 8.30788 16.6805V14.4832C8.30788 14.4469 8.28197 14.4161 8.2463 14.4091C8.24609 14.409 8.24592 14.409 8.2457 14.4089C7.44631 14.2309 6.44058 13.2672 6.244 12.492C5.91697 10.9921 5.91697 9.47161 6.244 7.97175C6.44058 7.19655 7.44631 6.23284 8.2457 6.05478C10.0734 5.70716 11.9266 5.70716 13.7539 6.05478C14.5537 6.23284 15.5594 7.19655 15.7556 7.97175C16.083 9.47166 16.083 10.9921 15.7556 12.492Z" fill="white"/>
<path d="M12.7388 13.5063C12.6159 13.4689 12.4989 13.4439 12.39 13.3988C11.2629 12.9312 10.2256 12.3279 9.40403 11.4032C8.93679 10.8773 8.57108 10.2836 8.26197 9.65532C8.11536 9.35738 7.99182 9.04779 7.86588 8.74013C7.75107 8.45963 7.92019 8.16985 8.09825 7.95844C8.26536 7.76006 8.48042 7.60829 8.71331 7.49636C8.89507 7.40905 9.07433 7.4594 9.20711 7.61345C9.49405 7.94654 9.75771 8.29665 9.97109 8.68277C10.1024 8.92026 10.0664 9.21055 9.82843 9.37216C9.7706 9.41143 9.71792 9.45758 9.66408 9.50192C9.61681 9.54081 9.57238 9.58008 9.53999 9.63272C9.48082 9.72901 9.47798 9.84266 9.51605 9.94738C9.8094 10.7535 10.3038 11.3804 11.1153 11.7181C11.2452 11.7721 11.3755 11.835 11.5251 11.8176C11.7756 11.7883 11.8568 11.5135 12.0323 11.3699C12.2039 11.2297 12.4232 11.2278 12.608 11.3448C12.7929 11.4618 12.9721 11.5874 13.1503 11.7143C13.3251 11.8389 13.4992 11.9608 13.6605 12.1029C13.8156 12.2395 13.869 12.4186 13.7816 12.604C13.6218 12.9435 13.3891 13.2258 13.0536 13.4061C12.9588 13.4569 12.8457 13.4734 12.7388 13.5063C12.6159 13.4689 12.8457 13.4734 12.7388 13.5063Z" fill="white"/>
<path d="M11.003 7.10816C12.4772 7.14949 13.6881 8.12785 13.9476 9.58535C13.9918 9.8337 14.0075 10.0876 14.0272 10.3397C14.0355 10.4457 13.9754 10.5464 13.8611 10.5478C13.7429 10.5492 13.6897 10.4503 13.682 10.3444C13.6668 10.1346 13.6563 9.92385 13.6274 9.71588C13.4748 8.61765 12.5991 7.70907 11.506 7.51413C11.3415 7.48478 11.1732 7.47709 11.0065 7.4596C10.9012 7.44856 10.7633 7.4422 10.7399 7.31123C10.7204 7.20144 10.813 7.11404 10.9176 7.10842C10.9459 7.10674 10.9745 7.10807 11.003 7.10816C12.4773 7.14949 10.9745 7.10807 11.003 7.10816Z" fill="white"/>
<path d="M13.2435 10.0125C13.241 10.031 13.2398 10.0742 13.2289 10.115C13.1898 10.263 12.9654 10.2815 12.9138 10.1322C12.8984 10.0879 12.8962 10.0374 12.8961 9.98972C12.8956 9.67751 12.8277 9.36556 12.6702 9.09387C12.5084 8.81461 12.261 8.57996 11.971 8.43786C11.7956 8.35201 11.606 8.2986 11.4138 8.26685C11.3298 8.25293 11.2449 8.24455 11.1604 8.23277C11.0581 8.21855 11.0035 8.15337 11.0084 8.05256C11.0129 7.95812 11.0819 7.8901 11.1849 7.89598C11.5232 7.91515 11.85 7.98837 12.1508 8.14761C12.7624 8.47155 13.1119 8.98279 13.2139 9.66552C13.2185 9.6965 13.2259 9.7271 13.2282 9.75812C13.234 9.83469 13.2376 9.91139 13.2435 10.0125C13.241 10.0309 13.2376 9.91139 13.2435 10.0125Z" fill="white"/>
<path d="M12.3265 9.97685C12.2032 9.97908 12.1372 9.91076 12.1245 9.79775C12.1156 9.71895 12.1086 9.63903 12.0898 9.56229C12.0527 9.41116 11.9724 9.27117 11.8453 9.17857C11.7853 9.13488 11.7173 9.10304 11.6461 9.08241C11.5557 9.05624 11.4617 9.06346 11.3715 9.04138C11.2735 9.01736 11.2192 8.93795 11.2347 8.84604C11.2487 8.76234 11.33 8.69702 11.4215 8.70368C11.9931 8.74493 12.4016 9.04043 12.4599 9.71332C12.4641 9.7608 12.4689 9.81095 12.4584 9.85645C12.4402 9.93409 12.3826 9.97307 12.3265 9.97685C12.2032 9.97904 12.3826 9.97307 12.3265 9.97685Z" fill="white"/>
<path d="M16.8192 7.7311L16.8156 7.71657C16.6508 7.05052 16.162 6.35726 15.5498 5.82977L14.7223 6.56316C15.2144 6.95525 15.636 7.49842 15.7558 7.97168C16.0832 9.47159 16.0832 10.992 15.7558 12.492C15.5595 13.2672 14.5534 14.2309 13.7541 14.409C12.7076 14.608 11.6527 14.693 10.599 14.6638C10.578 14.6632 10.5578 14.6714 10.5433 14.6865C10.3937 14.8399 9.56208 15.6937 9.56208 15.6937L8.51845 16.7648C8.44214 16.8444 8.30808 16.7903 8.30808 16.6805V14.4832C8.30808 14.4469 8.28217 14.4161 8.2465 14.409C8.24629 14.409 8.24612 14.409 8.2459 14.409C7.79159 14.3078 7.27085 13.9527 6.8697 13.5229L6.052 14.2475C6.56269 14.803 7.22135 15.2521 7.86391 15.4356V16.762C7.86391 17.2421 8.44893 17.4778 8.78159 17.1314L10.1254 15.7345C10.4169 15.7508 10.7085 15.7599 11.0001 15.7599C11.9908 15.7599 12.982 15.6662 13.9659 15.4785L13.9797 15.4757C15.1965 15.2105 16.5216 13.9355 16.8155 12.7473L16.8191 12.7327C17.1825 11.0732 17.1825 9.39051 16.8192 7.7311Z" fill="#D1D1D1"/>
<path d="M12.7389 13.5062C12.8457 13.4733 12.616 13.4689 12.7389 13.5062V13.5062Z" fill="white"/>
<path d="M13.6606 12.1027C13.4994 11.9607 13.3252 11.8388 13.1504 11.7142C12.9723 11.5872 12.7931 11.4617 12.6082 11.3446C12.4234 11.2277 12.2041 11.2295 12.0325 11.3698C11.8569 11.5134 11.7758 11.7882 11.5253 11.8175C11.3757 11.8349 11.2453 11.772 11.1155 11.718C10.6162 11.5103 10.2374 11.1927 9.95109 10.7916L9.34265 11.3309C9.36332 11.3548 9.38304 11.3794 9.40405 11.403C10.2257 12.3278 11.263 12.931 12.39 13.3987C12.4988 13.4438 12.616 13.4689 12.7389 13.5061C12.616 13.4688 12.8458 13.4733 12.7389 13.5061C12.8458 13.4733 12.9589 13.4567 13.0537 13.4059C13.3893 13.2256 13.6219 12.9432 13.7818 12.6038C13.8692 12.4185 13.8157 12.2393 13.6606 12.1027Z" fill="#D1D1D1"/>
<path d="M11.0082 7.11052C11.0065 7.11052 11.0049 7.11034 11.0032 7.11034C11.0016 7.11022 11.0037 7.11034 11.0082 7.11052Z" fill="white"/>
<path d="M11.0033 7.10815C11.0045 7.10815 11.0057 7.10828 11.007 7.10828C11.0888 7.11123 12.4195 7.14813 11.0033 7.10815Z" fill="white"/>
<path d="M13.1177 7.98517L12.8583 8.21509C13.2659 8.6117 13.547 9.13733 13.6274 9.71578C13.6562 9.92383 13.6669 10.1345 13.682 10.3443C13.6897 10.4503 13.7428 10.5492 13.8611 10.5478C13.9755 10.5464 14.0355 10.4457 14.0272 10.3396C14.0075 10.0876 13.9918 9.83364 13.9476 9.58532C13.8341 8.94732 13.5381 8.40115 13.1177 7.98517Z" fill="#D1D1D1"/>
<path d="M13.2138 9.66532C13.1395 9.16783 12.9331 8.76186 12.5903 8.45258L12.3317 8.68181C12.4654 8.80054 12.5811 8.93997 12.6703 9.09375C12.8277 9.36545 12.8956 9.6774 12.8961 9.98961C12.8962 10.0373 12.8985 10.0877 12.9138 10.1321C12.9655 10.2815 13.1899 10.263 13.229 10.1149C13.2398 10.0741 13.2411 10.0309 13.2435 10.0125C13.2411 10.0309 13.2376 9.91141 13.2435 10.0125C13.2376 9.91141 13.234 9.83466 13.2282 9.75801C13.2259 9.72685 13.2185 9.69626 13.2138 9.66532Z" fill="#D1D1D1"/>
<path d="M13.2437 10.0126C13.2377 9.9114 13.2412 10.0309 13.2437 10.0126V10.0126Z" fill="white"/>
<path d="M12.3255 9.97684C12.3273 9.97671 12.3291 9.97574 12.3308 9.97552C12.3259 9.97552 12.3185 9.97565 12.3108 9.97595C12.3158 9.97608 12.3203 9.97688 12.3255 9.97684Z" fill="white"/>
<path d="M12.3266 9.97787C12.3211 9.97795 12.3162 9.97713 12.3109 9.97696C12.2842 9.97769 12.2566 9.97912 12.3266 9.97787Z" fill="white"/>
<path d="M12.3322 9.97552C12.3303 9.97574 12.3285 9.97671 12.3267 9.97684C12.3408 9.97586 12.3396 9.97552 12.3322 9.97552Z" fill="white"/>
<path d="M12.0662 8.91708L11.8029 9.15049C11.8174 9.1593 11.8316 9.16849 11.8454 9.17851C11.9725 9.2711 12.0528 9.4111 12.0898 9.56222C12.1087 9.63896 12.1156 9.71879 12.1245 9.79768C12.1367 9.90567 12.198 9.97205 12.3108 9.97592C12.319 9.9757 12.3271 9.97553 12.3322 9.97549C12.3865 9.96947 12.441 9.9314 12.4584 9.85629C12.4689 9.81088 12.4641 9.76065 12.4599 9.71317C12.4272 9.33697 12.285 9.07886 12.0662 8.91708Z" fill="#D1D1D1"/>
</g>
<defs>
<clipPath id="clip0_14_188">
<rect width="22" height="22" fill="white"/>
</clipPath>
</defs>
</svg>
