<svg width="22" height="22" viewBox="0 0 22 22" fill="none" xmlns="http://www.w3.org/2000/svg">
<g clip-path="url(#clip0_14_248)">
<path d="M11 22C17.0751 22 22 17.0751 22 11C22 4.92487 17.0751 0 11 0C4.92487 0 0 4.92487 0 11C0 17.0751 4.92487 22 11 22Z" fill="#7AA5DA"/>
<path d="M17.5 8L9.15979 15.5656L14.8868 21.2927C19.0435 19.7221 22 15.5 22 11.5L17.5 8Z" fill="#5786B5"/>
<path d="M9.82272 15.5861C9.8094 15.5972 9.79603 15.6075 9.78198 15.6172V15.6164C9.79608 15.6068 9.8094 15.5972 9.82272 15.5861Z" fill="#DADDE0"/>
<path d="M9.783 15.6164V15.6182C9.783 15.6182 9.783 15.6164 9.78125 15.6182C9.78125 15.6182 9.78125 15.6182 9.783 15.6164Z" fill="#DADDE0"/>
<path d="M9.69385 15.6639C9.72423 15.6513 9.7531 15.6357 9.78125 15.6172C9.7531 15.6357 9.72345 15.6512 9.69385 15.6639Z" fill="#DADDE0"/>
<path d="M9.45239 15.6976C9.51758 15.7045 9.58349 15.6991 9.64794 15.6794C9.60128 15.6946 9.55311 15.7014 9.50499 15.7014C9.49016 15.7014 9.47534 15.7007 9.46129 15.6991C9.45832 15.6992 9.45536 15.6992 9.45239 15.6976Z" fill="#DADDE0"/>
<path d="M9.50488 15.7011C9.49006 15.7011 9.47523 15.7003 9.46118 15.6988C9.47523 15.7003 9.49006 15.7011 9.50488 15.7011Z" fill="white"/>
<path d="M9.45228 15.6973C9.45525 15.6988 9.45821 15.6988 9.46118 15.6988C9.44562 15.6981 9.43153 15.6958 9.41675 15.6927C9.42856 15.6951 9.44042 15.6966 9.45228 15.6973Z" fill="white"/>
<path d="M9.45234 15.6978C9.44048 15.697 9.42862 15.6955 9.4168 15.6932C9.4116 15.6925 9.40645 15.6917 9.40198 15.6902C9.41826 15.6932 9.43528 15.6963 9.45234 15.6978Z" fill="#DADDE0"/>
<path d="M9.34644 15.6742C9.36272 15.6796 9.37905 15.6841 9.39533 15.6887C9.38867 15.6872 9.38201 15.6856 9.37535 15.6841C9.37239 15.6834 9.36942 15.6826 9.36719 15.6811C9.36049 15.6796 9.3531 15.6773 9.34644 15.6742Z" fill="#DADDE0"/>
<path d="M9.37537 15.6842C9.38173 15.6857 9.38809 15.6871 9.39446 15.6886C9.38809 15.6879 9.38173 15.6864 9.37537 15.6842Z" fill="white"/>
<path d="M9.34645 15.6743C9.35311 15.6774 9.36055 15.6797 9.36721 15.6812C9.35608 15.6789 9.34499 15.6751 9.33386 15.6705C9.33829 15.672 9.34198 15.6736 9.34645 15.6743Z" fill="white"/>
<path d="M9.34567 15.6742C9.34144 15.6735 9.33787 15.672 9.33364 15.6705C9.33295 15.6712 9.33151 15.6705 9.33081 15.6698V15.6683C9.33574 15.6712 9.3407 15.6727 9.34567 15.6742Z" fill="#DADDE0"/>
<path d="M9.29602 14.2446L9.33083 15.6683C9.31897 15.6646 9.30711 15.6602 9.29602 15.655V14.2446Z" fill="#D1D1D1"/>
<path d="M9.29602 12.5172V14.2446L9.25305 12.4861L9.29602 12.5172Z" fill="#DADDE0"/>
<g clip-path="url(#clip1_14_248)">
<path d="M17.3913 13.6037C17.0865 13.264 16.7401 12.9595 16.4051 12.665C16.286 12.5602 16.1629 12.452 16.0441 12.3443C15.7033 12.0348 15.6909 11.9186 15.9607 11.5671C16.1474 11.3248 16.3454 11.0822 16.5368 10.8476C16.7105 10.6347 16.8901 10.4145 17.0622 10.1937L17.0975 10.1483C17.4264 9.72565 17.7666 9.28863 17.9477 8.76144C17.9947 8.62235 18.044 8.41768 17.9312 8.24653C17.8184 8.07552 17.5996 8.02335 17.4448 7.99898C17.3682 7.98692 17.2922 7.98527 17.2216 7.98527L15.0674 7.98384L15.0496 7.9837C14.7239 7.9837 14.5044 8.12622 14.3787 8.41946C14.2586 8.69965 14.1267 8.998 13.9762 9.28169C13.6766 9.8466 13.2962 10.4972 12.7457 11.0399L12.7224 11.063C12.6574 11.1278 12.5838 11.2013 12.53 11.2013C12.5217 11.2013 12.5127 11.1998 12.5026 11.1969C12.3885 11.1556 12.312 10.8993 12.3155 10.7801C12.3155 10.7784 12.3155 10.7768 12.3155 10.7751L12.314 8.46319C12.314 8.45518 12.3134 8.44723 12.3123 8.43929C12.2575 8.06346 12.1361 7.82951 11.6775 7.7461C11.6653 7.74385 11.6529 7.74274 11.6404 7.74274H9.40053C9.03559 7.74274 8.83452 7.88047 8.6455 8.08661C8.59448 8.14172 8.48827 8.25644 8.54091 8.3956C8.59432 8.53683 8.7677 8.56703 8.82415 8.57684C9.10438 8.62636 9.26234 8.78552 9.30708 9.06363C9.38519 9.54656 9.39478 10.062 9.33729 10.6858C9.32126 10.8592 9.28954 10.9931 9.23729 11.1075C9.22515 11.1342 9.18211 11.2213 9.13822 11.2213C9.12427 11.2213 9.08392 11.2163 9.01043 11.1692C8.83667 11.0587 8.70955 10.901 8.56134 10.7061C8.05714 10.0445 7.63398 9.31558 7.26751 8.47729C7.13159 8.1687 6.87776 7.99594 6.55244 7.99086C6.19499 7.98581 5.8709 7.98338 5.56181 7.98338C5.22408 7.98338 4.91098 7.98628 4.60524 7.99218C4.34351 7.99647 4.16247 8.06933 4.06721 8.20888C3.97179 8.34854 3.978 8.532 4.08567 8.75407C4.94755 10.5333 5.72901 11.827 6.61957 12.9488C7.24358 13.7338 7.86947 14.2772 8.58908 14.6587C9.34723 15.0614 10.1969 15.2572 11.1865 15.2572C11.2986 15.2572 11.4146 15.2547 11.5316 15.2496C12.1066 15.2236 12.3199 15.0303 12.3469 14.5104C12.3597 14.2448 12.391 13.9661 12.5317 13.7285C12.6205 13.5788 12.7033 13.5788 12.7305 13.5788C12.7829 13.5788 12.8478 13.6012 12.9176 13.6431C13.0428 13.719 13.1501 13.8206 13.2381 13.9094C13.3209 13.9937 13.4028 14.0789 13.4848 14.1642C13.6616 14.3481 13.8445 14.5383 14.0356 14.7187C14.4538 15.1138 14.9145 15.2875 15.4436 15.2498H17.4186C17.4228 15.2498 17.4271 15.2497 17.4313 15.2494C17.6281 15.2374 17.7985 15.136 17.8989 14.9713C18.0232 14.7673 18.0207 14.5071 17.8922 14.275C17.7463 14.0126 17.5571 13.7883 17.3913 13.6037Z" fill="white"/>
<path d="M16.4053 12.6651C16.7403 12.9596 17.0866 13.264 17.3914 13.6037C17.5572 13.7883 17.7464 14.0126 17.8922 14.275C18.0208 14.5071 18.0233 14.7673 17.8989 14.9713C17.7985 15.136 17.6281 15.2374 17.4313 15.2494C17.4271 15.2497 17.4229 15.2498 17.4187 15.2498H15.4436C14.9145 15.2875 14.4538 15.1138 14.0356 14.7187C13.8446 14.5383 13.6617 14.3481 13.4848 14.1642L13.4789 14.158C13.3989 14.0748 13.3189 13.9917 13.2381 13.9094C13.1502 13.8206 13.0428 13.719 12.9177 13.6431C12.8479 13.6012 12.7829 13.5788 12.7305 13.5788C12.7033 13.5788 12.6205 13.5788 12.5317 13.7285C12.3911 13.9661 12.3598 14.2448 12.347 14.5105C12.32 15.0303 12.1067 15.2236 11.5316 15.2496C11.4147 15.2547 11.2987 15.2572 11.1865 15.2572C10.1969 15.2572 10.0376 15.3741 9.27942 14.9713L12.5026 11.1969C12.5128 11.1998 12.5218 11.2013 12.53 11.2013C12.5838 11.2013 12.6575 11.1278 12.7225 11.063L12.7458 11.0399C13.2962 10.4972 13.6767 9.8466 13.9762 9.2817C14.1267 8.99801 14.2586 8.69965 14.3787 8.41947C14.5045 8.12623 14.724 7.9837 15.0497 7.9837L15.0675 7.98385L17.2217 7.98528C17.2922 7.98528 17.3683 7.98692 17.4448 7.99898C17.5996 8.02335 17.8184 8.07552 17.9312 8.24653C18.0441 8.41768 17.9947 8.62236 17.9477 8.76145C17.7667 9.28851 17.4266 9.72545 17.0978 10.148L17.0975 10.1483L17.0622 10.1937C16.8903 10.4143 16.7109 10.6343 16.5374 10.8469L16.5369 10.8476L16.5367 10.8477C16.3453 11.0823 16.1474 11.3249 15.9608 11.5671C15.6909 11.9186 15.7033 12.0348 16.0442 12.3443C16.1624 12.4515 16.2849 12.5592 16.4035 12.6635L16.4052 12.665L16.4053 12.6651Z" fill="#C4C4C4"/>
</g>
</g>
<defs>
<clipPath id="clip0_14_248">
<rect width="22" height="22" fill="white"/>
</clipPath>
<clipPath id="clip1_14_248">
<rect width="14" height="13" fill="white" transform="translate(4 5)"/>
</clipPath>
</defs>
</svg>
