<svg width="21" height="22" viewBox="0 0 21 22" fill="none" xmlns="http://www.w3.org/2000/svg">
<g clip-path="url(#clip0_14_212)">
<path d="M10.5 22C16.299 22 21 17.0751 21 11C21 4.92487 16.299 0 10.5 0C4.70101 0 0 4.92487 0 11C0 17.0751 4.70101 22 10.5 22Z" fill="#75B73B"/>
<path d="M14.7756 6.52379C14.1668 6.36429 13.2715 5.81343 12.692 5.59262C10.4294 4.85188 7.38896 5.44446 6.54047 8.18522C6.46976 8.2593 6.32834 8.2593 6.25763 8.2593C4.56065 10.3334 5.69199 12.8519 5.55056 15.1482C5.50229 15.9577 5.09599 16.6734 4.57312 17.2789L8.97336 21.8839C9.47186 21.9599 9.98144 22 10.5001 22C15.6859 22 19.9932 18.0613 20.8461 12.8837L14.7756 6.52379Z" fill="#52891D"/>
<path d="M10.2062 4.65984C7.00579 4.81934 4.48026 7.61162 4.4899 10.9681C4.49285 11.9904 4.72844 12.9554 5.14409 13.8081L4.50601 17.0529C4.47152 17.2285 4.62262 17.3822 4.78906 17.3408L7.82401 16.5876C8.60376 16.9945 9.47957 17.2295 10.4064 17.2443C13.6776 17.2967 16.405 14.5757 16.5071 11.1501C16.6163 7.47808 13.7235 4.48431 10.2062 4.65984ZM13.8276 14.4348C12.9388 15.3658 11.757 15.8787 10.5 15.8787C9.76401 15.8787 9.05928 15.7056 8.40549 15.3645L7.98295 15.1439L6.12207 15.6057L6.51373 13.6138L6.30558 13.1866C5.96613 12.4903 5.79403 11.7374 5.79403 10.9486C5.79403 9.63171 6.28355 8.39374 7.17232 7.46256C8.05317 6.53968 9.25423 6.01864 10.5001 6.01864C11.757 6.01864 12.9388 6.53147 13.8276 7.46256C14.7163 8.39365 15.2058 9.63176 15.2058 10.9485C15.2059 12.2537 14.7085 13.5119 13.8276 14.4348Z" fill="white"/>
<path d="M13.4168 12.3141L12.2526 11.9639C12.0997 11.918 11.9348 11.9635 11.8233 12.0825L11.5386 12.3863C11.4185 12.5145 11.2364 12.5556 11.0775 12.4883C10.5268 12.2548 9.36833 11.1757 9.07265 10.6361C8.98717 10.4804 9.00132 10.2858 9.10616 10.1436L9.35463 9.80676C9.452 9.67484 9.47251 9.49751 9.40816 9.34497L8.91839 8.18447C8.80108 7.90655 8.46205 7.8256 8.24052 8.02188C7.91564 8.30981 7.53013 8.74719 7.48333 9.23188C7.40069 10.0864 7.75055 11.1635 9.07318 12.4569C10.6013 13.9513 11.8251 14.1485 12.622 13.9464C13.0739 13.8318 13.4351 13.3721 13.6629 12.9956C13.8184 12.7388 13.6955 12.398 13.4168 12.3141Z" fill="white"/>
<path d="M14.6018 6.34683L13.6903 7.32557C13.7367 7.37048 13.7829 7.41564 13.8278 7.46269C14.7166 8.39378 15.206 9.63188 15.206 10.9486C15.206 12.2538 14.7086 13.512 13.8278 14.4348C12.939 15.3659 11.7572 15.8788 10.5002 15.8788C9.76417 15.8788 9.05948 15.7057 8.40565 15.3646L7.98311 15.144L6.12223 15.6058L6.1607 15.4101L4.51294 17.1793C4.54928 17.2937 4.6649 17.3715 4.78914 17.3407L7.82409 16.5875C8.60384 16.9944 9.47965 17.2294 10.4065 17.2442C13.6776 17.2966 16.4052 14.5756 16.5072 11.15C16.5636 9.25362 15.8192 7.53823 14.6018 6.34683Z" fill="#D1D1D1"/>
<path d="M13.4169 12.3141L12.2527 11.9639C12.0998 11.918 11.9349 11.9635 11.8234 12.0825L11.5387 12.3863C11.4187 12.5145 11.2365 12.5556 11.0776 12.4883C10.7595 12.3534 10.2388 11.9364 9.79858 11.5042L8.98926 12.3732C9.01703 12.401 9.04471 12.4288 9.07334 12.4569C10.6015 13.9513 11.8252 14.1485 12.6221 13.9464C13.0741 13.8318 13.4353 13.3721 13.6631 12.9956C13.8185 12.7388 13.6956 12.398 13.4169 12.3141Z" fill="#D1D1D1"/>
</g>
<defs>
<clipPath id="clip0_14_212">
<rect width="21" height="22" fill="white"/>
</clipPath>
</defs>
</svg>
